<?xml version="1.0" encoding="utf-8"?>
<!-- Generator: Adobe Illustrator 25.2.0, SVG Export Plug-In . SVG Version: 6.00 Build 0)  -->
<svg version="1.1" id="svg" xmlns="http://www.w3.org/2000/svg" xmlns:xlink="http://www.w3.org/1999/xlink" x="0px" y="0px"
	 viewBox="0 0 400 389.1" style="enable-background:new 0 0 400 389.1;" xml:space="preserve">
<style type="text/css">
	.st0{fill:#FFFFFF;}
</style>
<g id="svgg">
	<g id="XMLID_1_">
		<g>
			<path class="st0" d="M372.2,240.5c1.8,2.6,2.1,3.2,2.1,4.4c0,1.7-0.8,2.2-2.8,1.6c-3.8-1.2-7.5-2.4-8.2-2.8
				c-0.4-0.2-1-0.4-1.4-0.4c-0.4,0-0.9-0.2-1-0.4c-0.1-0.2-0.6-0.4-1-0.4c-0.4,0-1.1-0.2-1.4-0.3c-0.4-0.2-1.5-0.6-2.4-0.8
				c-1-0.3-2.1-0.6-2.4-0.8c-0.4-0.2-1-0.4-1.4-0.4c-0.4,0-0.9-0.1-1.1-0.3c-0.2-0.2-1.1-0.6-2.1-0.8l-1.7-0.5l-1.3,1.5
				c-0.7,0.8-2.1,2.6-3,4c-1,1.4-2.6,3.6-3.6,4.9c-1,1.3-2.5,3.4-3.4,4.6c-0.9,1.2-1.9,2.6-2.2,3c-0.4,0.5-1.2,1.6-2,2.6
				c-1.3,1.8-2.9,2.5-3.5,1.5c-0.2-0.3-0.3-7-0.3-14.8c0-13.9,0-14.3-0.8-14.3c-0.4,0-0.9-0.2-1-0.4c-0.1-0.2-0.7-0.4-1.2-0.4
				c-0.5,0-1.3-0.2-1.6-0.3c-1.1-0.5-2.4-1-5.9-2.2c-1.8-0.6-3.5-1.2-3.7-1.4s-0.8-0.3-1.2-0.3c-0.5,0-1-0.2-1.1-0.4
				c-0.1-0.2-0.7-0.4-1.4-0.4s-1.2-0.2-1.4-0.4c-0.1-0.2-0.6-0.4-1-0.4c-0.4,0-1.1-0.1-1.4-0.3c-0.4-0.2-1.1-0.5-1.7-0.7
				c-0.5-0.2-1.4-0.6-2-0.8c-3.4-1.4-0.8-3.9,5.4-5.4c0.4-0.1,1.1-0.3,1.6-0.5c0.4-0.2,1.6-0.5,2.5-0.8c1-0.3,2.1-0.6,2.5-0.8
				c0.4-0.2,1.6-0.5,2.5-0.8c1-0.3,2.1-0.6,2.4-0.8c0.4-0.2,1.1-0.3,1.6-0.3s1-0.1,1.2-0.3c0.2-0.1,1.5-0.6,2.9-1.1l2.6-0.9L328,199
				c0.2-11.5,0.5-14.9,1.3-16.2c0.9-1.4,2.6,0.5,9.1,9.9c0.9,1.3,3,4.3,4.7,6.8c4,5.7,4.5,6.2,5.5,5.6c0.4-0.3,1.2-0.5,1.7-0.5
				c0.5,0,1.1-0.2,1.2-0.4c0.1-0.2,0.8-0.4,1.4-0.4c0.6,0,1.2-0.2,1.4-0.4c0.1-0.2,0.7-0.4,1.4-0.4s1.2-0.2,1.4-0.4
				c0.1-0.2,0.6-0.4,1.1-0.4s1-0.1,1.1-0.2c0.4-0.4,6.6-2.5,7.4-2.5c0.4,0,1-0.2,1.4-0.4c1.4-0.7,3.9-1.3,5.4-1.1
				c2.9,0.2,2.6,1.1-2.9,9c-0.3,0.5-1.4,1.9-2.3,3.1c-2.2,2.9-3.9,5.2-6.5,9l-2.1,2.9l2.8,4.2c1.6,2.3,3.6,5.3,4.6,6.7
				c0.9,1.4,1.9,2.6,2,2.8c0.1,0.1,0.7,0.9,1.3,1.8S371.6,239.7,372.2,240.5z"/>
			<path class="st0" d="M324.3,137.5c2.1,3.4,2.5,5.8,1,6.4c-0.6,0.2-5.7-1.5-6.5-2.2c-0.8-0.7-2-0.2-3.1,1.1
				c-3.2,3.9-3.8,4.4-4.9,4.4c-1.7,0-1.9-0.6-1.5-4.8c0.4-4.4,0.6-4.1-3.4-5.7c-1.7-0.7-3.4-1.6-3.8-2c-1.8-2.1-0.2-3.2,6-4.5
				c1.6-0.3,2.2-2,2.2-5.8c0-1.9,0.2-3.3,0.5-3.6c1.2-1.2,2.7-0.1,5.5,4.1c1.8,2.8,2.4,3.2,3.7,2.4c6.3-3.4,9.3-0.3,4.5,4.7
				C322.5,134.3,322.5,134.6,324.3,137.5z"/>
			<path class="st0" d="M263.6,146.6c1.9,1.4,2.8,2.8,2.3,3.7c-0.4,0.6-2.8,0.9-9,1.1l-5.8,0.2l-0.9,3c-1.5,5-1.9,6.1-2.4,7.3
				c-1.7,4.2-1.8,4.3-3.3,3.9c-1.1-0.3-1.8-1.8-2.9-5.7c-0.3-1-0.6-2.1-0.8-2.4c-0.2-0.4-0.4-1-0.4-1.4c0-0.4-0.2-0.9-0.4-1
				c-0.2-0.1-0.4-0.6-0.4-0.9c0-0.4-0.2-1.2-0.5-1.7l-0.5-1.1l-7.1,0.1c-7.7,0.1-7.9,0.1-7.9-2c0-1.1,0.8-1.9,5.1-4.9
				c5.7-4.1,7.1-6,5.4-7c-0.2-0.1-0.4-0.6-0.4-1c0-0.4-0.2-1.1-0.4-1.4c-0.2-0.4-0.6-1.4-0.9-2.2c-1.6-4.2-1.8-5.8-1.1-7.2
				c0.8-1.5,3.7-0.3,7.2,2.8c0.4,0.4,1,0.7,1.3,0.7s0.5,0.1,0.5,0.3c0,0.2,0.6,0.6,1.3,1.1c0.7,0.4,1.6,1.1,2,1.4
				c1,0.9,1.2,0.9,2.3-0.1c0.5-0.5,1.3-1.1,1.8-1.5c0.5-0.3,2-1.4,3.3-2.4c4.3-3.2,5.6-3.8,6.7-2.7c0.5,0.6,0.6,3.1,0.1,4.1
				c-0.2,0.4-0.6,1.5-0.8,2.4c-0.3,1-0.6,2.1-0.8,2.5c-0.3,0.7-0.9,2.8-1.3,4.7c-0.2,0.6,0.4,1.2,2.8,2.9c1.6,1.2,3.2,2.3,3.4,2.5
				C261.3,144.9,262.5,145.8,263.6,146.6z"/>
			<path class="st0" d="M249.4,235.6c0.5,2.8,0.5,23.7,0,26.7c-0.7,4.1-1.7,7.6-2.4,8.6c-0.1,0.2-0.4,0.8-0.5,1.4
				c-0.5,2-1.9,2.2-4.7,0.9c-10-5-23.6-11.4-24.1-11.4c-0.2,0-0.4-0.2-0.4-0.4c0-0.2-0.4-0.4-0.9-0.4c-0.5,0-1.1-0.2-1.2-0.4
				c-0.1-0.2-0.7-0.4-1.3-0.4c-0.6,0-1.3-0.2-1.5-0.4c-0.7-0.7-7.3-0.2-9.7,0.8c-1.8,0.7-10.2,4.9-11.2,5.5
				c-0.6,0.4-1.2,0.7-1.5,0.7c-0.3,0-0.9,0.3-1.5,0.7c-1.4,1-6.7,3.9-7.6,4.2c-0.4,0.1-0.7,0.4-0.7,0.6c0,0.2-0.3,0.3-0.7,0.3
				c-0.4,0-0.8,0.1-0.9,0.3c-0.1,0.3-2.7,1.9-6.1,3.6c-1.2,0.6-2.6,1.5-3.2,1.9c-0.6,0.4-1.2,0.8-1.3,0.8s-1.8,0.9-3.8,2
				c-2,1.1-4.2,2.3-4.8,2.6c-0.6,0.3-1.4,0.8-1.8,1c-0.3,0.2-2.1,1.2-3.9,2.2c-1.8,0.9-3.4,1.8-3.5,1.9c-0.1,0.1-0.6,0.4-1.1,0.7
				c-3.4,1.9-4.7,2.6-6,3.2c-0.8,0.4-2.2,1.1-3.1,1.5c-4,2-7.9-0.8-4.9-3.5c1.5-1.4,12.1-7.8,13-7.8c0.3,0,0.5-0.2,0.5-0.4
				c0-0.2,0.2-0.4,0.4-0.4c0.2,0,0.9-0.3,1.5-0.7c0.9-0.7,2.9-1.8,7.9-4.4c1-0.5,1.8-1,1.9-1.2c0.3-0.3,4.7-2.9,6.1-3.5
				c0.7-0.3,1.3-0.7,1.2-0.9c0-0.3-7.2-4-10.5-5.3c-0.5-0.2-1.3-0.6-1.7-0.8c-0.4-0.2-1-0.3-1.4-0.3c-0.4,0-0.9-0.2-1-0.4
				c-0.1-0.2-0.7-0.4-1.4-0.4c-0.6,0-1.2,0.2-1.4,0.4c-0.1,0.2-0.7,0.4-1.2,0.4c-0.5,0-0.9,0.2-0.9,0.4c0,0.2-0.2,0.4-0.6,0.4
				c-0.3,0-1.2,0.4-2,0.9c-0.8,0.5-2.6,1.4-3.9,2.1c-1.3,0.7-2.9,1.6-3.5,2c-0.6,0.4-1.6,1-2.2,1.3c-0.6,0.3-1.4,0.8-1.8,1
				c-0.3,0.2-2,1.2-3.7,2.1c-6.5,3.4-8.3,2.1-11.1-8.1c-0.3-1-0.6-2.2-0.8-2.6c-0.2-0.5-0.3-1.6-0.3-2.4c0-0.8-0.2-1.6-0.4-1.8
				c-1.1-1.1-1.1-22.2,0-23.3c0.2-0.2,0.3-1,0.3-1.8s0.2-1.6,0.4-1.7c0.2-0.1,0.4-0.7,0.4-1.3c0-0.9,0.8-3.3,2.3-7.3
				c0.9-2.3,3.7-7.9,5-9.9c0.7-1.1,1.3-2.1,1.3-2.2c0-0.1,0.2-0.5,0.6-0.9c0.3-0.4,1.5-1.9,2.6-3.4c6.1-8.2,15.1-15.5,24.9-20.1
				c1.8-0.9,3.6-1.7,4-1.9c0.4-0.2,1-0.4,1.4-0.4s0.9-0.2,1-0.4c0.1-0.2,0.8-0.4,1.4-0.4c0.6,0,1.2-0.1,1.3-0.3
				c0.1-0.2,1.4-0.6,2.8-1c1.5-0.4,3.3-0.8,4.1-1c0.8-0.2,2.3-0.4,3.3-0.4c1,0,2.2-0.2,2.7-0.4c2.9-1.3,20,0.6,25.3,2.7
				c0.4,0.2,1.6,0.5,2.5,0.8c1,0.3,1.9,0.6,2.1,0.8c0.2,0.2,0.6,0.3,0.9,0.3c0.8,0,6.2,2.6,8.1,3.9c0.9,0.6,1.9,1.2,2.1,1.2
				c0.2,0,0.7,0.3,1.1,0.8c0.4,0.4,0.9,0.8,1,0.8c0.6,0,6.5,4.7,8.9,7c2.7,2.7,6.1,6.5,7.1,7.9c4.2,5.9,7.4,11.4,8.5,14.7
				c0.6,1.7,1,2.6,1.7,4.3C247.8,229.2,248.8,232.8,249.4,235.6z"/>
			<path class="st0" d="M191.4,97.2c5.2,1.6,5.1,4.3-0.2,5.9c-1.6,0.5-3.2,1.1-3.6,1.2c-0.4,0.2-1,0.3-1.4,0.3s-0.9,0.2-1,0.4
				c-0.1,0.2-0.7,0.4-1.2,0.4s-1,0.2-1.2,0.4c-0.1,0.2-0.6,0.4-1.2,0.4c-0.5,0-1,0.1-1.1,0.3c-0.1,0.2-1.3,0.7-2.6,1.1l-2.4,0.8v10
				c0,11.1,0,11.2-1.6,11.2c-1.2,0-3-2.1-7.2-8c-1.7-2.4-5.6-7.6-6.1-8.2c-0.2-0.2-0.5-0.2-0.8,0.1c-0.3,0.3-0.8,0.5-1.2,0.5
				c-0.4,0-1,0.2-1.4,0.3c-0.4,0.2-1.5,0.6-2.4,0.8c-1,0.2-2,0.6-2.4,0.8c-0.4,0.2-1,0.4-1.4,0.4c-0.4,0-0.9,0.2-1,0.4
				c-0.1,0.2-0.6,0.4-1.1,0.4c-0.5,0-1.6,0.3-2.5,0.8c-5.4,2.6-8.9,0.7-5.6-3c0.4-0.4,1.4-1.8,2.2-3.1c0.9-1.3,2.3-3.4,3.3-4.7
				c5-6.7,5.1-6.9,3.8-8.3c-0.6-0.6-1.8-2.2-2.7-3.5c-1.8-2.5-2.2-3.1-4.9-6.8c-3.8-5.1-4.1-6.7-1.3-6.9c0.9-0.1,1.9,0.1,2.1,0.3
				c0.2,0.2,0.9,0.4,1.5,0.4c0.6,0,1.2,0.2,1.3,0.4s0.8,0.4,1.4,0.4c0.6,0,1.2,0.2,1.4,0.4c0.1,0.2,0.7,0.4,1.2,0.4
				c0.5,0,1.3,0.2,1.6,0.4c0.4,0.2,2.2,0.8,4.2,1.4c1.9,0.6,3.7,1.2,4,1.4c0.3,0.2,1-0.4,2.1-1.9c0.9-1.2,2.5-3.5,3.6-5
				s2.4-3.4,3-4.3s1.2-1.8,1.5-2c0.3-0.3,0.9-1.1,1.3-1.9c1-1.7,3-2,3.3-0.5c0.1,0.5,0.3,1.4,0.5,2c0.2,0.6,0.3,5,0.4,9.8l0.1,8.6
				l1.5,0.7c0.8,0.4,1.8,0.7,2.3,0.7c0.5,0,0.9,0.2,1.1,0.4c0.1,0.2,0.7,0.4,1.2,0.4c0.5,0,1.3,0.2,1.6,0.4c0.4,0.2,1.5,0.6,2.4,0.8
				c1,0.3,2.1,0.6,2.5,0.8C188.7,96.4,190.1,96.8,191.4,97.2z"/>
			<path class="st0" d="M91.4,130.1c3.2,0,4,0.3,4,1.6c0,0.7-0.9,1.6-5.9,5.3c-1.2,0.9-2.2,1.8-2.2,1.9c0,0.3,0.4,1.4,1.6,5
				c1.3,3.9,1,5.6-1.1,5.6c-0.9,0-4.8-2.3-5.3-3.1c-0.1-0.2-0.9-0.7-1.7-1.1c-1.7-0.8-1.4-0.9-5.3,2c-5.7,4.3-7.7,2.8-5.2-3.9
				c0.7-1.8,1.3-3.6,1.4-3.9c0.1-0.4-1.1-1.5-3.8-3.5c-4.7-3.4-5.2-4.1-4.1-5.3c0.5-0.5,1.4-0.6,3.9-0.6c3.8,0,7.2-0.7,7.2-1.4
				c0-0.3,0.2-0.8,0.3-1.2c0.2-0.4,0.6-1.4,0.8-2.2c0.6-1.8,1.5-4.1,2.1-4.8c1.3-1.7,3-0.2,4.6,4c0.2,0.4,0.5,1.3,0.7,1.9
				c0.2,0.6,0.4,1.5,0.4,2C83.7,129.4,86.7,130.1,91.4,130.1z"/>
			<path class="st0" d="M70.5,219.6c2.7,2.8,3.4,3.9,3.1,5.4c-0.2,0.8-4.8,1.3-5.5,0.5c-0.2-0.2-1.3-0.4-2.4-0.4
				c-1.1,0-2.2-0.1-2.4-0.3c-0.2-0.2-1.3-0.4-2.4-0.6c-2.2-0.2-2.2-0.3-4.6,4.2c-4.4,8.2-4.5,8.4-5.8,8.4c-1.2,0-2.1-2.9-2.1-6.8
				c0-1.6-0.2-3-0.4-3.2c-0.2-0.1-0.4-0.8-0.4-1.5c0-2.9-1.2-4.5-3.5-4.5c-0.9,0-1.7-0.2-1.8-0.4c-0.1-0.2-1.1-0.4-2.1-0.4
				c-1,0-2-0.2-2.1-0.4c-0.1-0.2-0.9-0.4-1.7-0.4c-1.6,0-3.2-1.2-3.2-2.4c0-0.7,2.6-3.1,3.3-3.1c0.2,0,2.4-1,4.8-2.2l4.4-2.2l-0.2-2
				c-0.1-1.1-0.4-3.4-0.6-5.1c-0.2-1.7-0.5-3.9-0.6-4.8s-0.1-2.1,0-2.6c0.6-2.2,2-1.3,7.4,4.3c4,4.2,5.1,5.2,5.7,4.9
				c0.4-0.2,1.5-0.7,2.4-1.1c1-0.4,3.4-1.6,5.5-2.6c6.2-3,8.1-0.4,3.8,5c-0.2,0.2-1.2,2.1-2.2,4.1l-1.9,3.7l1.5,1.8
				C67,216,68.9,218,70.5,219.6z"/>
		</g>
		<g>
		</g>
	</g>
</g>
</svg>
