<svg id="svg" version="1.1" xmlns="http://www.w3.org/2000/svg" xmlns:xlink="http://www.w3.org/1999/xlink" width="400" height="242.75724275724275" viewBox="0, 0, 400,242.75724275724275"><g id="svgg"><path id="path0" d="M120.017 22.566 C 119.269 23.630,118.456 24.752,118.211 25.058 L 117.766 25.616 114.887 24.704 C 113.303 24.201,111.982 23.816,111.951 23.846 C 111.921 23.877,112.710 25.006,113.705 26.355 C 114.699 27.703,115.467 28.911,115.410 29.039 C 115.353 29.166,114.547 30.305,113.619 31.568 C 112.691 32.832,111.951 33.888,111.975 33.914 C 111.998 33.940,113.333 33.521,114.941 32.982 L 117.865 32.002 119.722 34.533 L 121.578 37.063 121.633 33.935 L 121.688 30.807 123.989 29.991 C 125.254 29.542,126.510 29.119,126.781 29.051 C 127.647 28.834,127.330 28.658,124.426 27.747 L 121.578 26.854 121.479 23.743 L 121.379 20.631 120.017 22.566 M93.703 36.214 L 93.207 37.662 91.633 37.721 L 90.059 37.780 91.283 38.690 C 92.665 39.716,92.652 39.677,92.108 41.259 C 91.554 42.868,91.558 42.871,92.947 41.860 C 94.444 40.772,94.188 40.773,95.620 41.846 C 96.991 42.875,97.047 42.838,96.507 41.268 C 95.959 39.676,95.946 39.717,97.328 38.690 L 98.553 37.780 96.979 37.721 L 95.405 37.662 94.908 36.214 C 94.635 35.417,94.364 34.765,94.306 34.765 C 94.248 34.765,93.976 35.417,93.703 36.214 M161.151 35.814 C 161.092 36.171,161.021 36.729,160.992 37.054 C 160.943 37.603,160.847 37.668,159.640 37.976 C 158.446 38.280,158.382 38.323,158.841 38.510 C 159.116 38.622,159.688 38.859,160.112 39.036 L 160.884 39.359 160.807 40.727 L 160.730 42.094 161.600 41.036 L 162.471 39.979 163.503 40.390 C 164.071 40.616,164.660 40.851,164.811 40.912 C 164.963 40.972,164.761 40.512,164.362 39.888 C 163.487 38.520,163.479 38.796,164.430 37.645 C 165.383 36.491,165.390 36.505,164.027 36.868 C 163.427 37.028,162.869 37.159,162.785 37.160 C 162.702 37.162,162.357 36.713,162.019 36.164 C 161.292 34.982,161.287 34.980,161.151 35.814 M138.773 38.197 C 139.151 39.320,139.461 40.292,139.461 40.358 C 139.461 40.423,138.676 41.058,137.718 41.767 L 135.976 43.057 138.203 43.113 L 140.431 43.170 141.071 45.111 C 141.424 46.179,141.758 47.133,141.814 47.230 C 141.870 47.328,142.207 46.474,142.564 45.332 L 143.211 43.257 145.227 43.145 C 147.789 43.003,147.784 43.015,145.867 41.643 C 144.028 40.327,144.056 40.426,144.854 38.065 C 145.602 35.851,145.635 35.867,143.546 37.442 L 141.804 38.756 140.782 38.018 C 138.927 36.680,138.564 36.424,138.323 36.289 C 138.192 36.215,138.395 37.074,138.773 38.197 M121.027 53.049 C 109.313 55.274,102.249 68.058,106.951 78.523 L 107.393 79.507 110.889 77.518 C 113.522 76.021,114.564 75.529,115.108 75.527 C 115.962 75.524,120.847 77.840,120.560 78.113 C 120.461 78.207,118.106 79.562,115.326 81.125 C 110.596 83.784,110.293 83.988,110.589 84.315 C 110.885 84.642,111.468 84.346,120.101 79.485 C 132.056 72.753,130.677 73.004,137.562 76.311 L 141.758 78.327 141.997 77.775 C 143.126 75.170,143.316 69.546,142.381 66.434 C 139.574 57.098,130.304 51.287,121.027 53.049 M166.234 56.891 L 166.234 61.102 163.886 61.832 C 162.595 62.234,160.791 62.802,159.878 63.095 L 158.217 63.627 161.376 64.677 C 163.114 65.255,164.931 65.877,165.415 66.059 L 166.295 66.390 166.169 70.593 L 166.043 74.796 168.558 71.386 L 171.073 67.976 174.883 69.250 C 176.979 69.951,178.726 70.491,178.767 70.451 C 178.807 70.410,177.802 68.912,176.533 67.121 C 175.264 65.329,174.229 63.813,174.234 63.750 C 174.239 63.688,175.310 62.198,176.616 60.441 C 177.922 58.683,178.960 57.215,178.924 57.179 C 178.888 57.143,177.126 57.659,175.009 58.326 C 172.892 58.993,171.141 59.516,171.117 59.489 C 171.094 59.463,170.022 57.957,168.735 56.144 C 167.448 54.331,166.358 52.810,166.314 52.764 C 166.270 52.718,166.234 54.575,166.234 56.891 M84.836 58.156 C 84.979 59.302,85.100 60.296,85.105 60.364 C 85.111 60.432,84.261 60.876,83.217 61.349 C 80.878 62.410,80.876 62.389,83.327 62.839 C 85.703 63.275,85.432 62.963,85.731 65.615 L 85.974 67.775 87.063 65.749 C 87.884 64.221,88.233 63.745,88.482 63.816 C 89.483 64.101,92.158 64.552,92.258 64.452 C 92.322 64.388,91.723 63.663,90.926 62.841 L 89.477 61.346 90.125 60.194 C 90.482 59.560,90.991 58.662,91.256 58.198 L 91.739 57.356 89.702 58.317 L 87.665 59.279 86.120 57.675 L 84.576 56.071 84.836 58.156 M169.331 112.723 C 155.475 114.119,145.407 123.429,145.387 134.865 C 145.374 142.104,147.760 144.962,159.865 152.211 C 168.918 157.632,170.356 159.585,169.130 164.787 C 167.203 172.960,154.478 177.179,145.055 172.770 C 140.430 170.605,136.425 173.723,137.455 178.685 C 138.151 182.037,140.406 183.226,147.208 183.827 C 165.236 185.421,181.442 174.120,181.415 159.972 C 181.402 153.032,178.952 150.159,167.351 143.475 C 161.727 140.235,160.836 139.648,159.472 138.285 C 154.308 133.121,157.968 124.457,166.334 122.041 C 170.051 120.968,176.024 121.494,179.575 123.209 C 183.503 125.106,186.613 123.344,186.613 119.223 C 186.613 115.643,185.033 113.916,181.119 113.219 C 177.107 112.505,173.146 112.338,169.331 112.723 M202.098 113.417 C 199.625 113.906,199.285 114.050,198.437 114.970 C 197.377 116.120,197.070 117.267,196.911 120.679 C 196.691 125.419,195.560 132.783,191.729 154.446 C 188.471 172.870,188.515 176.546,192.038 180.069 C 196.149 184.180,207.071 183.749,210.068 179.356 C 212.753 175.420,210.695 172.705,206.011 174.003 C 202.233 175.051,200.216 173.743,200.204 170.239 C 200.196 167.687,207.435 125.286,208.990 118.781 C 209.991 114.597,207.183 112.411,202.098 113.417 M100.400 113.874 C 97.818 114.506,95.951 116.879,95.510 120.086 C 95.398 120.907,94.525 125.997,93.571 131.398 L 91.837 141.218 87.926 141.367 C 84.072 141.514,64.381 141.371,64.205 141.194 C 64.084 141.074,67.405 124.285,68.160 121.203 C 69.427 116.024,67.801 113.772,62.899 113.919 C 58.340 114.055,56.897 115.617,56.053 121.332 C 54.781 129.942,47.101 170.209,45.946 174.321 C 45.303 176.612,45.204 178.075,45.624 179.077 C 46.506 181.181,49.976 182.992,50.207 181.469 L 50.290 180.919 50.320 181.495 L 50.350 182.072 51.741 181.972 C 55.883 181.676,57.630 179.418,58.553 173.171 C 58.881 170.949,59.850 165.040,60.707 160.040 L 62.265 150.949 63.650 150.788 C 65.323 150.593,89.618 150.690,89.819 150.891 C 90.148 151.220,86.072 171.055,84.822 175.210 C 83.468 179.710,85.523 182.209,90.389 181.976 C 94.733 181.769,96.497 179.840,97.202 174.525 C 97.986 168.620,105.507 128.283,106.885 122.590 C 108.147 117.381,108.144 116.840,106.851 115.367 C 105.726 114.086,102.542 113.349,100.400 113.874 M121.455 113.962 C 118.495 115.020,116.294 118.398,116.286 121.892 C 116.271 128.846,124.931 129.813,128.053 123.205 C 130.825 117.337,127.001 111.980,121.455 113.962 M240.859 127.776 C 225.983 130.497,215.057 144.947,215.104 161.838 C 215.133 172.128,218.012 178.220,224.354 181.407 C 231.172 184.834,243.893 184.468,247.291 180.748 C 251.024 176.660,249.691 172.049,245.258 173.718 C 234.168 177.892,226.556 173.937,226.815 164.136 L 226.873 161.938 230.470 161.705 C 245.270 160.744,254.178 155.964,257.919 146.977 C 263.031 134.698,254.640 125.255,240.859 127.776 M286.585 127.787 C 271.519 130.317,260.265 145.706,260.804 163.037 C 261.214 176.199,266.672 182.522,278.574 183.622 C 282.249 183.962,288.898 183.294,290.815 182.393 C 296.638 179.658,296.534 171.686,290.703 173.818 C 279.496 177.915,271.438 173.238,272.432 163.213 L 272.563 161.890 275.292 161.755 C 290.314 161.008,299.155 156.491,303.384 147.399 C 309.103 135.108,300.788 125.401,286.585 127.787 M338.087 127.975 C 332.424 129.001,328.718 131.804,325.033 137.847 C 323.713 140.012,323.699 139.987,324.376 136.663 C 325.599 130.657,323.883 128.645,318.182 129.403 C 313.205 130.065,312.883 130.490,312.665 136.663 C 312.455 142.595,307.318 171.121,300.635 203.455 C 300.551 203.864,310.900 207.648,311.222 207.326 C 311.287 207.262,311.691 205.160,312.121 202.655 C 313.515 194.523,315.678 182.557,315.769 182.466 C 315.818 182.417,316.920 182.539,318.219 182.738 C 334.857 185.282,348.308 174.837,353.367 155.445 C 358.035 137.548,351.372 125.570,338.087 127.975 M119.181 131.509 C 115.160 132.211,114.558 133.115,114.285 138.861 C 114.117 142.407,113.567 146.713,112.474 153.047 C 111.226 160.282,109.247 170.843,108.562 173.926 C 107.803 177.341,107.774 178.412,108.404 179.660 C 109.370 181.570,111.941 182.813,112.145 181.469 L 112.228 180.919 112.258 181.469 C 112.317 182.550,115.449 181.998,117.133 180.609 C 118.571 179.422,118.834 178.695,119.373 174.403 C 120.141 168.300,123.334 149.585,125.307 139.628 C 126.220 135.021,126.221 134.281,125.318 132.888 C 124.189 131.147,122.904 130.858,119.181 131.509 M244.767 135.587 C 250.805 137.379,248.465 145.937,240.297 151.935 C 235.953 155.125,227.572 158.504,227.572 157.065 C 227.572 155.827,229.358 149.020,230.367 146.412 C 233.288 138.856,239.657 134.069,244.767 135.587 M290.492 135.578 C 294.854 136.873,294.796 143.270,290.379 148.041 C 286.170 152.587,279.138 156.615,274.449 157.166 L 273.281 157.303 273.427 156.224 C 275.227 142.978,283.146 133.396,290.492 135.578 M338.206 138.364 C 342.725 139.706,344.010 145.742,341.953 155.973 C 339.557 167.887,333.932 174.233,325.467 174.574 C 321.968 174.715,317.366 173.500,317.594 172.495 C 317.640 172.293,318.175 169.624,318.782 166.563 C 320.667 157.058,321.944 152.545,323.878 148.551 C 327.627 140.808,333.169 136.868,338.206 138.364 M161.249 195.293 C 160.849 195.774,161.068 196.693,161.599 196.769 C 162.256 196.862,162.637 196.461,162.637 195.680 C 162.637 194.931,161.753 194.685,161.249 195.293 M250.360 195.293 C 249.960 195.774,250.179 196.693,250.710 196.769 C 251.366 196.862,251.748 196.461,251.748 195.680 C 251.748 194.931,250.864 194.685,250.360 195.293 M165.085 195.408 C 164.729 195.553,164.635 195.751,164.635 196.354 C 164.635 196.773,164.367 198.641,164.038 200.506 C 163.324 204.563,163.297 205.255,163.836 205.794 C 164.561 206.519,166.633 206.207,166.633 205.374 C 166.633 205.269,166.338 205.202,165.976 205.227 C 164.603 205.319,164.585 205.136,165.471 200.110 C 166.350 195.121,166.332 194.901,165.085 195.408 M169.481 195.411 C 169.113 195.559,169.031 195.748,169.029 196.447 C 169.027 196.918,168.758 198.828,168.429 200.693 C 167.721 204.717,167.700 205.262,168.232 205.794 C 168.956 206.519,171.029 206.207,171.029 205.374 C 171.029 205.269,170.733 205.202,170.372 205.227 C 168.983 205.320,168.968 205.132,169.935 199.686 C 170.762 195.029,170.749 194.901,169.481 195.411 M222.178 195.392 C 217.707 196.757,215.875 203.770,219.454 205.821 C 220.684 206.525,223.822 206.526,224.393 205.822 C 224.937 205.151,224.882 204.919,224.226 205.122 C 221.394 205.999,219.382 204.649,219.381 201.871 C 219.380 198.536,221.616 195.942,224.211 196.270 C 224.686 196.330,225.300 196.407,225.574 196.442 C 226.143 196.512,226.428 195.689,225.942 195.380 C 225.615 195.173,222.867 195.181,222.178 195.392 M242.108 195.340 C 241.916 195.392,241.723 195.630,241.681 195.869 C 241.638 196.108,241.450 197.293,241.264 198.501 C 241.078 199.710,240.698 201.854,240.421 203.265 C 239.873 206.053,239.931 206.453,240.825 206.046 C 241.231 205.861,241.349 205.568,241.625 204.063 C 242.340 200.165,243.187 198.801,244.895 198.801 C 246.141 198.801,246.240 199.298,245.658 202.613 C 245.022 206.240,245.070 206.574,246.138 206.003 C 246.644 205.731,247.724 199.236,247.385 198.493 C 246.616 196.806,243.992 197.484,242.628 199.723 C 242.480 199.966,242.507 199.533,242.704 198.501 C 243.263 195.585,243.163 195.058,242.108 195.340 M66.594 195.654 C 66.491 195.792,66.305 196.638,66.180 197.535 C 66.056 198.432,65.621 200.455,65.213 202.030 C 64.347 205.378,64.280 206.053,64.800 206.156 C 65.277 206.251,65.935 205.645,65.930 205.114 C 65.924 204.353,67.410 197.000,67.539 197.153 C 67.658 197.294,67.883 198.465,68.717 203.297 C 69.265 206.466,69.479 206.361,72.228 201.567 C 75.306 196.200,75.213 196.234,74.305 200.807 C 73.881 202.945,73.477 204.987,73.408 205.343 C 73.267 206.075,73.585 206.323,74.403 206.117 C 74.829 206.010,74.903 205.827,75.116 204.348 C 75.247 203.440,75.662 201.138,76.039 199.232 C 76.795 195.405,76.795 195.405,75.799 195.405 C 74.675 195.405,74.508 195.595,72.318 199.379 C 71.172 201.360,70.174 202.917,70.101 202.839 C 70.028 202.761,69.720 201.169,69.415 199.301 C 68.784 195.421,68.776 195.405,67.632 195.405 C 67.165 195.405,66.698 195.517,66.594 195.654 M153.177 195.738 C 153.118 195.939,152.839 197.408,152.558 199.001 C 152.276 200.594,151.851 202.778,151.614 203.853 C 151.129 206.049,151.224 206.420,152.184 206.083 C 152.770 205.877,152.861 205.636,153.244 203.271 L 153.474 201.847 155.162 201.758 C 158.544 201.581,160.785 198.058,158.787 196.058 C 158.056 195.326,153.375 195.059,153.177 195.738 M87.552 195.844 C 87.421 195.976,87.313 196.332,87.313 196.635 C 87.313 196.978,87.105 197.382,86.763 197.704 C 86.247 198.190,86.235 198.237,86.570 198.488 C 86.874 198.716,86.897 198.880,86.730 199.627 C 86.112 202.392,85.739 205.035,85.906 205.472 C 86.226 206.314,87.990 206.680,88.580 206.028 C 89.095 205.459,88.980 205.195,88.219 205.195 C 87.067 205.195,87.007 204.812,87.638 201.490 L 88.186 198.601 88.924 198.601 C 89.676 198.601,90.248 198.187,90.015 197.811 C 89.945 197.696,89.569 197.602,89.180 197.602 L 88.474 197.602 88.611 196.603 C 88.756 195.554,88.224 195.173,87.552 195.844 M92.019 196.048 C 91.848 196.293,91.708 196.732,91.708 197.024 C 91.708 197.388,91.582 197.589,91.309 197.660 C 90.867 197.776,90.755 198.517,91.158 198.651 C 91.348 198.714,91.277 199.397,90.858 201.526 C 90.216 204.795,90.187 205.423,90.659 205.846 C 91.508 206.608,93.307 206.432,93.307 205.587 C 93.307 205.291,93.170 205.195,92.747 205.195 C 91.552 205.195,91.489 204.728,92.208 201.199 C 92.483 199.850,92.707 198.719,92.707 198.685 C 92.707 198.652,93.089 198.597,93.556 198.563 C 94.829 198.471,94.958 197.602,93.699 197.602 C 93.058 197.602,92.890 197.536,92.974 197.317 C 93.565 195.776,92.863 194.844,92.019 196.048 M156.920 196.430 C 158.001 196.922,158.031 198.980,156.971 199.973 C 155.980 200.901,153.556 201.183,153.735 200.350 C 153.788 200.102,153.979 199.136,154.160 198.202 C 154.341 197.268,154.529 196.436,154.579 196.354 C 154.718 196.123,156.364 196.176,156.920 196.430 M80.845 197.885 C 77.444 199.144,75.754 204.992,78.463 206.124 C 79.598 206.598,80.964 205.895,81.863 204.373 C 82.349 203.550,82.476 203.657,82.304 204.745 C 82.131 205.843,82.408 206.319,83.095 206.101 C 83.388 206.008,83.516 205.801,83.516 205.423 C 83.516 205.124,83.756 203.579,84.049 201.990 C 84.771 198.075,84.770 197.913,84.016 197.881 C 83.686 197.867,83.012 197.798,82.517 197.727 C 81.933 197.644,81.347 197.699,80.845 197.885 M103.020 197.897 C 100.014 198.968,98.660 204.171,100.946 205.863 C 102.047 206.678,104.682 206.454,104.860 205.530 C 104.920 205.216,104.816 205.192,103.923 205.310 C 102.146 205.546,101.299 204.940,101.299 203.434 C 101.299 202.864,101.325 202.850,102.621 202.717 C 104.809 202.493,106.291 201.442,106.578 199.912 C 106.924 198.069,105.229 197.109,103.020 197.897 M109.790 197.788 C 107.264 198.398,106.572 200.818,108.534 202.180 C 110.724 203.700,110.907 204.070,109.855 204.853 C 109.273 205.286,108.651 205.348,107.343 205.103 C 106.383 204.923,106.037 205.735,106.880 206.187 C 110.122 207.922,113.487 203.493,110.365 201.601 C 107.945 200.134,108.551 198.325,111.334 198.707 C 112.129 198.817,112.308 198.781,112.419 198.491 C 112.701 197.757,111.382 197.404,109.790 197.788 M115.216 197.894 C 112.937 198.706,112.483 200.899,114.328 202.180 C 116.518 203.700,116.702 204.070,115.649 204.853 C 115.060 205.291,114.420 205.359,113.137 205.119 C 112.179 204.939,111.833 205.737,112.674 206.187 C 115.659 207.784,119.236 203.690,116.462 201.850 C 114.411 200.490,114.193 200.062,115.094 199.161 C 115.677 198.578,115.753 198.558,116.892 198.686 C 118.057 198.818,118.082 198.811,118.082 198.333 C 118.082 197.553,116.745 197.349,115.216 197.894 M122.107 197.821 C 118.760 198.837,117.608 205.157,120.587 206.161 C 121.623 206.511,123.474 206.342,123.822 205.866 C 124.253 205.275,124.119 205.206,122.790 205.330 C 121.219 205.477,120.280 204.807,120.280 203.541 L 120.280 202.855 121.589 202.733 C 123.942 202.513,125.674 201.114,125.674 199.434 C 125.674 198.030,123.965 197.257,122.107 197.821 M128.767 197.788 C 125.792 198.501,125.665 201.188,128.528 202.842 C 129.628 203.478,129.760 204.054,128.973 204.794 C 128.476 205.260,128.156 205.300,126.174 205.143 C 125.692 205.104,125.562 205.180,125.512 205.531 C 125.292 207.079,129.284 206.488,130.419 204.805 C 131.348 203.426,131.002 202.594,128.971 201.322 C 127.054 200.122,127.624 198.701,130.024 198.701 C 130.975 198.701,131.361 198.624,131.429 198.419 C 131.653 197.749,130.285 197.424,128.767 197.788 M175.336 197.852 C 172.017 198.729,170.714 204.770,173.571 206.034 C 176.537 207.346,179.620 204.583,179.620 200.613 C 179.620 198.160,178.036 197.139,175.336 197.852 M194.505 197.903 C 193.385 198.299,192.408 199.407,192.408 200.280 C 192.408 201.352,192.573 201.579,194.035 202.516 C 195.226 203.279,195.405 203.472,195.405 203.990 C 195.405 205.061,194.603 205.342,192.113 205.143 C 190.804 205.038,191.351 206.191,192.683 206.341 C 196.401 206.761,198.242 203.411,195.306 201.570 C 192.957 200.097,193.569 198.368,196.318 198.712 C 197.327 198.838,197.403 198.818,197.403 198.432 C 197.403 197.614,196.030 197.364,194.505 197.903 M236.863 197.788 C 234.337 198.398,233.645 200.818,235.607 202.180 C 237.797 203.700,237.980 204.070,236.928 204.853 C 236.345 205.286,235.724 205.348,234.416 205.103 C 233.456 204.923,233.110 205.735,233.953 206.187 C 237.195 207.922,240.560 203.493,237.438 201.601 C 235.007 200.128,235.547 198.494,238.413 198.648 C 239.504 198.706,239.790 198.460,239.255 197.925 C 238.918 197.588,237.928 197.531,236.863 197.788 M255.468 197.897 C 252.354 199.006,251.043 204.338,253.490 205.941 C 254.950 206.897,257.623 206.121,258.754 204.413 C 261.402 200.416,259.420 196.488,255.468 197.897 M264.998 197.991 C 264.434 198.247,264.027 198.620,263.749 199.135 L 263.337 199.900 263.387 198.901 C 263.432 197.993,263.395 197.896,262.976 197.837 C 262.333 197.746,261.938 198.140,261.936 198.876 C 261.935 199.219,261.711 200.804,261.439 202.398 C 260.796 206.153,260.791 206.034,261.578 205.957 L 262.217 205.894 262.655 203.357 C 263.245 199.929,264.018 198.801,265.775 198.801 C 267.107 198.801,267.189 199.357,266.430 203.197 C 266.158 204.570,265.935 205.762,265.935 205.844 C 265.933 206.263,267.328 205.980,267.411 205.544 C 268.849 198.008,268.357 196.466,264.998 197.991 M271.865 197.892 C 269.311 198.803,269.023 201.223,271.318 202.473 C 273.708 203.773,272.862 205.801,270.190 205.181 C 269.029 204.911,268.931 204.943,268.931 205.585 C 268.931 206.104,269.018 206.192,269.646 206.310 C 272.073 206.765,274.126 205.442,274.126 203.422 C 274.126 202.578,274.144 202.598,272.129 201.133 C 270.465 199.924,271.320 198.436,273.536 198.686 C 274.700 198.818,274.725 198.811,274.725 198.335 C 274.725 197.577,273.347 197.363,271.865 197.892 M98.525 198.128 C 98.269 198.307,97.797 198.869,97.474 199.377 L 96.888 200.300 97.025 199.136 L 97.161 197.972 96.483 198.037 C 95.893 198.093,95.796 198.180,95.744 198.701 C 95.711 199.031,95.423 200.733,95.105 202.484 C 94.472 205.972,94.473 205.994,95.303 205.994 C 95.950 205.994,96.004 205.880,96.205 204.120 C 96.549 201.100,97.283 199.670,98.785 199.096 C 99.649 198.767,100.019 198.356,99.789 197.984 C 99.615 197.703,99.038 197.768,98.525 198.128 M161.239 197.982 C 160.786 198.106,160.726 198.251,160.599 199.509 C 160.521 200.274,160.274 201.843,160.050 202.997 C 159.482 205.917,159.491 206.034,160.279 205.957 L 160.918 205.894 161.480 202.597 C 162.314 197.706,162.312 197.686,161.239 197.982 M181.509 198.017 C 181.436 198.135,181.441 199.216,181.520 200.420 C 181.598 201.624,181.663 203.284,181.663 204.109 C 181.663 207.402,183.169 206.991,184.640 203.297 L 185.514 201.099 185.643 202.298 C 185.713 202.957,185.781 204.015,185.793 204.650 C 185.817 205.970,186.261 206.394,187.232 206.025 C 187.870 205.782,191.364 198.277,191.005 197.918 C 190.536 197.449,189.778 198.246,189.215 199.800 C 187.420 204.762,187.020 205.384,187.001 203.247 C 186.985 201.523,186.739 199.060,186.566 198.887 C 186.022 198.343,185.476 199.048,184.319 201.791 C 183.668 203.333,183.064 204.595,182.976 204.595 C 182.889 204.595,182.817 203.122,182.817 201.320 C 182.817 198.518,182.772 198.027,182.501 197.923 C 182.028 197.742,181.658 197.777,181.509 198.017 M232.318 197.940 C 231.950 198.036,231.935 198.083,231.579 200.300 C 231.097 203.290,230.409 204.648,229.190 205.013 C 227.409 205.547,227.168 204.794,227.940 201.099 C 228.261 199.560,228.484 198.234,228.436 198.152 C 228.254 197.841,227.201 197.999,227.097 198.352 C 226.849 199.200,225.974 204.194,225.974 204.764 C 225.974 206.753,229.104 206.868,230.270 204.923 L 230.765 204.096 230.767 205.031 C 230.771 206.990,232.039 206.509,232.248 204.469 C 232.323 203.743,232.606 202.029,232.879 200.661 C 233.456 197.759,233.433 197.648,232.318 197.940 M250.200 198.008 C 249.861 198.145,249.750 198.351,249.750 198.850 C 249.750 199.213,249.525 200.792,249.251 202.358 C 248.606 206.032,248.605 205.994,249.357 205.994 C 249.690 205.994,249.993 205.882,250.031 205.744 C 250.069 205.607,250.382 203.837,250.728 201.812 C 251.426 197.717,251.399 197.526,250.200 198.008 M104.790 198.673 C 105.994 199.553,104.010 202.127,101.897 202.427 C 101.450 202.490,101.405 202.436,101.464 201.898 C 101.705 199.677,103.622 197.819,104.790 198.673 M123.876 198.801 C 124.874 199.799,123.404 201.758,121.200 202.366 L 120.429 202.579 120.538 201.768 C 120.847 199.467,122.803 197.728,123.876 198.801 M83.045 198.903 C 83.390 199.801,82.219 203.633,81.344 204.471 C 79.006 206.711,77.524 202.506,79.697 199.800 C 80.618 198.654,82.732 198.087,83.045 198.903 M177.617 198.996 C 178.419 199.798,178.328 201.826,177.404 203.735 C 176.253 206.112,173.427 205.904,173.427 203.442 C 173.427 200.076,175.984 197.363,177.617 198.996 M257.884 199.051 C 259.467 200.780,257.618 205.395,255.344 205.395 C 253.835 205.395,253.321 203.703,254.067 201.191 C 254.716 199.004,256.782 197.846,257.884 199.051 M140.638 199.100 C 139.895 199.504,139.461 200.264,139.461 201.161 C 139.461 203.201,142.341 203.282,143.183 201.266 C 143.915 199.516,142.339 198.176,140.638 199.100 M206.507 199.190 C 205.777 199.671,205.411 200.313,205.402 201.127 C 205.374 203.545,209.000 203.101,209.330 200.646 C 209.537 199.097,207.916 198.261,206.507 199.190 " stroke="none" fill="#fbfbfb" fill-rule="evenodd"></path><path id="path1" d="M136.713 43.304 C 137.235 43.345,138.089 43.345,138.611 43.304 C 139.133 43.263,138.706 43.229,137.662 43.229 C 136.618 43.229,136.191 43.263,136.713 43.304 M123.929 52.691 C 124.233 52.737,124.682 52.736,124.928 52.688 C 125.174 52.641,124.925 52.603,124.376 52.605 C 123.826 52.606,123.625 52.645,123.929 52.691 M166.115 57.942 C 166.115 59.755,166.146 60.497,166.183 59.590 C 166.220 58.684,166.220 57.200,166.183 56.294 C 166.146 55.387,166.115 56.129,166.115 57.942 M85.914 57.443 C 86.287 57.827,86.637 58.142,86.692 58.142 C 86.747 58.142,86.487 57.827,86.114 57.443 C 85.741 57.058,85.391 56.743,85.336 56.743 C 85.281 56.743,85.541 57.058,85.914 57.443 M90.509 62.400 C 90.509 62.435,90.802 62.727,91.159 63.050 L 91.808 63.636 91.221 62.987 C 90.674 62.382,90.509 62.246,90.509 62.400 M172.773 112.432 C 173.127 112.476,173.757 112.477,174.171 112.434 C 174.586 112.390,174.296 112.354,173.526 112.353 C 172.757 112.352,172.418 112.388,172.773 112.432 M63.387 113.829 C 63.689 113.875,64.183 113.875,64.486 113.829 C 64.788 113.784,64.540 113.746,63.936 113.746 C 63.332 113.746,63.084 113.784,63.387 113.829 M118.769 115.534 L 118.182 116.184 118.831 115.597 C 119.188 115.274,119.481 114.982,119.481 114.948 C 119.481 114.793,119.316 114.929,118.769 115.534 M129.117 119.081 C 129.117 119.466,129.158 119.623,129.209 119.431 C 129.259 119.238,129.259 118.924,129.209 118.731 C 129.158 118.539,129.117 118.696,129.117 119.081 M170.585 121.625 C 171.055 121.667,171.774 121.667,172.183 121.624 C 172.592 121.581,172.208 121.546,171.329 121.547 C 170.450 121.548,170.115 121.583,170.585 121.625 M126.263 125.824 L 125.574 126.573 126.324 125.885 C 127.021 125.244,127.165 125.075,127.012 125.075 C 126.979 125.075,126.642 125.412,126.263 125.824 M340.809 127.614 C 341.056 127.661,341.461 127.661,341.708 127.614 C 341.956 127.566,341.753 127.527,341.259 127.527 C 340.764 127.527,340.562 127.566,340.809 127.614 M301.798 131.269 C 302.227 131.708,302.624 132.068,302.679 132.068 C 302.733 132.068,302.427 131.708,301.998 131.269 C 301.569 130.829,301.173 130.470,301.118 130.470 C 301.063 130.470,301.369 130.829,301.798 131.269 M157.089 132.667 C 157.089 133.052,157.130 133.209,157.181 133.017 C 157.231 132.825,157.231 132.510,157.181 132.318 C 157.130 132.125,157.089 132.283,157.089 132.667 M225.268 135.914 L 224.076 137.163 225.325 135.970 C 226.011 135.314,226.573 134.752,226.573 134.722 C 226.573 134.574,226.376 134.754,225.268 135.914 M328.562 141.708 L 327.772 142.557 328.621 141.768 C 329.411 141.033,329.562 140.859,329.411 140.859 C 329.379 140.859,328.996 141.241,328.562 141.708 M65.888 141.204 C 66.247 141.248,66.786 141.247,67.086 141.202 C 67.387 141.156,67.093 141.120,66.434 141.121 C 65.774 141.122,65.529 141.159,65.888 141.204 M89.960 141.197 C 90.152 141.247,90.467 141.247,90.659 141.197 C 90.852 141.146,90.694 141.105,90.310 141.105 C 89.925 141.105,89.768 141.146,89.960 141.197 M78.472 141.407 C 79.378 141.444,80.862 141.444,81.768 141.407 C 82.675 141.370,81.933 141.340,80.120 141.340 C 78.307 141.340,77.565 141.370,78.472 141.407 M354.915 144.456 C 354.915 145.390,354.949 145.772,354.991 145.305 C 355.034 144.838,355.034 144.073,354.991 143.606 C 354.949 143.139,354.915 143.521,354.915 144.456 M289.603 148.701 L 288.611 149.750 289.660 148.759 C 290.237 148.213,290.709 147.741,290.709 147.710 C 290.709 147.561,290.524 147.727,289.603 148.701 M177.522 150.250 C 177.952 150.689,178.348 151.049,178.403 151.049 C 178.458 151.049,178.151 150.689,177.722 150.250 C 177.293 149.810,176.897 149.451,176.842 149.451 C 176.787 149.451,177.093 149.810,177.522 150.250 M67.678 150.794 C 68.033 150.838,68.662 150.838,69.076 150.795 C 69.491 150.752,69.201 150.716,68.432 150.715 C 67.662 150.714,67.323 150.749,67.678 150.794 M80.176 150.796 C 80.701 150.838,81.510 150.837,81.974 150.795 C 82.438 150.753,82.008 150.720,81.019 150.720 C 80.030 150.721,79.651 150.755,80.176 150.796 M214.852 161.638 C 214.852 162.463,214.888 162.800,214.931 162.388 C 214.974 161.976,214.974 161.301,214.931 160.889 C 214.888 160.477,214.852 160.814,214.852 161.638 M169.288 162.338 C 169.289 162.887,169.328 163.088,169.374 162.784 C 169.420 162.481,169.419 162.031,169.371 161.785 C 169.324 161.540,169.286 161.788,169.288 162.338 M227.622 161.976 C 227.815 162.026,228.129 162.026,228.322 161.976 C 228.514 161.926,228.357 161.885,227.972 161.885 C 227.587 161.885,227.430 161.926,227.622 161.976 M273.279 161.979 C 273.528 162.027,273.887 162.025,274.078 161.975 C 274.269 161.925,274.066 161.886,273.626 161.889 C 273.187 161.891,273.031 161.932,273.279 161.979 M166.034 169.930 C 165.549 170.425,165.197 170.829,165.251 170.829 C 165.306 170.829,165.748 170.425,166.234 169.930 C 166.719 169.436,167.071 169.031,167.016 169.031 C 166.961 169.031,166.519 169.436,166.034 169.930 M200.262 170.330 C 200.263 170.989,200.300 171.235,200.345 170.876 C 200.389 170.516,200.388 169.977,200.343 169.677 C 200.297 169.377,200.261 169.670,200.262 170.330 M228.971 172.090 C 228.971 172.125,229.263 172.417,229.620 172.740 L 230.270 173.327 229.683 172.677 C 229.136 172.072,228.971 171.936,228.971 172.090 M174.716 174.875 L 173.926 175.724 174.775 174.934 C 175.565 174.200,175.716 174.026,175.565 174.026 C 175.532 174.026,175.150 174.408,174.716 174.875 M152.997 174.370 C 153.354 174.415,153.939 174.415,154.296 174.370 C 154.653 174.326,154.361 174.290,153.646 174.290 C 152.932 174.290,152.640 174.326,152.997 174.370 M203.047 174.364 C 203.239 174.414,203.554 174.414,203.746 174.364 C 203.939 174.313,203.781 174.272,203.397 174.272 C 203.012 174.272,202.855 174.313,203.047 174.364 M107.739 177.423 C 107.739 177.807,107.780 177.965,107.830 177.772 C 107.880 177.580,107.880 177.265,107.830 177.073 C 107.780 176.881,107.739 177.038,107.739 177.423 M292.795 181.069 L 292.208 181.718 292.857 181.131 C 293.462 180.584,293.598 180.420,293.444 180.420 C 293.410 180.420,293.117 180.712,292.795 181.069 M89.264 182.163 C 89.623 182.207,90.163 182.206,90.463 182.161 C 90.763 182.115,90.470 182.079,89.810 182.080 C 89.151 182.081,88.905 182.118,89.264 182.163 M200.749 182.958 C 200.997 183.006,201.401 183.006,201.648 182.958 C 201.896 182.911,201.693 182.872,201.199 182.872 C 200.704 182.872,200.502 182.911,200.749 182.958 M323.027 183.361 C 323.384 183.406,323.969 183.406,324.326 183.361 C 324.683 183.317,324.391 183.281,323.676 183.281 C 322.962 183.281,322.670 183.317,323.027 183.361 M67.183 195.343 C 67.375 195.393,67.690 195.393,67.882 195.343 C 68.074 195.292,67.917 195.251,67.532 195.251 C 67.148 195.251,66.991 195.292,67.183 195.343 M75.375 195.343 C 75.567 195.393,75.882 195.393,76.074 195.343 C 76.266 195.292,76.109 195.251,75.724 195.251 C 75.340 195.251,75.182 195.292,75.375 195.343 M223.529 196.345 C 223.777 196.393,224.137 196.391,224.328 196.341 C 224.519 196.291,224.316 196.252,223.876 196.254 C 223.437 196.256,223.280 196.297,223.529 196.345 M160.486 199.001 C 160.486 199.386,160.527 199.543,160.577 199.351 C 160.628 199.158,160.628 198.844,160.577 198.651 C 160.527 198.459,160.486 198.616,160.486 199.001 M88.561 198.739 C 88.754 198.789,89.068 198.789,89.261 198.739 C 89.453 198.689,89.296 198.648,88.911 198.648 C 88.526 198.648,88.369 198.689,88.561 198.739 M93.059 198.743 C 93.308 198.791,93.667 198.789,93.858 198.739 C 94.049 198.689,93.846 198.650,93.407 198.652 C 92.967 198.654,92.811 198.695,93.059 198.743 M101.299 202.969 C 101.299 203.064,101.523 203.098,101.798 203.046 C 102.073 202.993,102.298 202.916,102.298 202.874 C 102.298 202.832,102.073 202.797,101.798 202.797 C 101.523 202.797,101.299 202.875,101.299 202.969 M120.355 203.090 C 120.293 203.252,120.288 203.499,120.345 203.640 C 120.402 203.781,120.455 203.700,120.464 203.460 C 120.474 203.174,120.634 202.995,120.929 202.938 L 121.379 202.852 120.923 202.824 C 120.672 202.809,120.416 202.929,120.355 203.090 M167.679 204.595 C 167.679 204.980,167.720 205.137,167.770 204.945 C 167.820 204.753,167.820 204.438,167.770 204.246 C 167.720 204.053,167.679 204.211,167.679 204.595 M222.228 205.333 C 222.420 205.383,222.735 205.383,222.927 205.333 C 223.119 205.282,222.962 205.241,222.577 205.241 C 222.193 205.241,222.035 205.282,222.228 205.333 M221.631 206.537 C 221.935 206.583,222.384 206.582,222.630 206.534 C 222.876 206.487,222.627 206.449,222.078 206.451 C 221.528 206.452,221.327 206.491,221.631 206.537 " stroke="none" fill="#56addf" fill-rule="evenodd"></path><path id="path2" d="M121.516 23.615 C 121.496 25.339,121.546 26.792,121.628 26.843 C 121.711 26.894,121.755 25.978,121.726 24.807 C 121.628 20.878,121.554 20.456,121.516 23.615 M161.039 35.253 C 161.039 35.865,161.153 35.915,161.297 35.365 C 161.354 35.145,161.320 34.915,161.220 34.854 C 161.120 34.792,161.039 34.972,161.039 35.253 M90.659 37.709 C 91.126 37.751,91.891 37.751,92.358 37.709 C 92.825 37.667,92.443 37.632,91.508 37.632 C 90.574 37.632,90.192 37.667,90.659 37.709 M96.254 37.709 C 96.721 37.751,97.485 37.751,97.952 37.709 C 98.419 37.667,98.037 37.632,97.103 37.632 C 96.169 37.632,95.787 37.667,96.254 37.709 M160.673 40.997 C 160.639 41.753,160.898 42.148,161.156 41.731 C 161.243 41.589,161.214 41.550,161.082 41.632 C 160.943 41.718,160.835 41.493,160.785 41.013 L 160.707 40.260 160.673 40.997 M147.344 42.743 C 147.407 42.845,147.255 42.968,147.006 43.015 C 146.688 43.077,146.753 43.111,147.227 43.130 C 147.805 43.153,147.866 43.114,147.652 42.857 C 147.379 42.528,147.161 42.447,147.344 42.743 M84.582 56.593 C 84.570 57.015,84.595 57.081,84.655 56.782 C 84.734 56.384,84.792 56.356,85.080 56.578 C 85.321 56.764,85.308 56.711,85.034 56.390 C 84.564 55.839,84.604 55.822,84.582 56.593 M166.114 69.231 C 166.114 70.879,166.145 71.527,166.183 70.670 C 166.220 69.814,166.220 68.465,166.182 67.673 C 166.144 66.882,166.114 67.582,166.114 69.231 M105.541 70.130 C 105.541 70.514,105.582 70.672,105.632 70.480 C 105.682 70.287,105.682 69.973,105.632 69.780 C 105.582 69.588,105.541 69.745,105.541 70.130 M105.541 72.927 C 105.541 73.312,105.582 73.469,105.632 73.277 C 105.682 73.084,105.682 72.770,105.632 72.577 C 105.582 72.385,105.541 72.542,105.541 72.927 M131.019 74.067 C 131.266 74.115,131.671 74.115,131.918 74.067 C 132.165 74.019,131.963 73.980,131.469 73.980 C 130.974 73.980,130.772 74.019,131.019 74.067 M170.080 112.625 C 170.272 112.675,170.587 112.675,170.779 112.625 C 170.972 112.575,170.814 112.534,170.430 112.534 C 170.045 112.534,169.888 112.575,170.080 112.625 M176.274 112.625 C 176.466 112.675,176.781 112.675,176.973 112.625 C 177.165 112.575,177.008 112.534,176.623 112.534 C 176.239 112.534,176.081 112.575,176.274 112.625 M204.346 113.028 C 204.593 113.076,204.998 113.076,205.245 113.028 C 205.492 112.980,205.290 112.942,204.795 112.942 C 204.301 112.942,204.098 112.980,204.346 113.028 M123.127 113.630 C 123.429 113.675,123.924 113.675,124.226 113.630 C 124.528 113.584,124.281 113.546,123.676 113.546 C 123.072 113.546,122.825 113.584,123.127 113.630 M61.890 113.828 C 62.139 113.875,62.499 113.874,62.690 113.824 C 62.881 113.774,62.677 113.734,62.238 113.737 C 61.798 113.739,61.642 113.780,61.890 113.828 M102.747 113.829 C 103.049 113.875,103.544 113.875,103.846 113.829 C 104.148 113.784,103.901 113.746,103.297 113.746 C 102.692 113.746,102.445 113.784,102.747 113.829 M186.675 119.181 C 186.676 119.840,186.714 120.086,186.758 119.727 C 186.803 119.368,186.802 118.828,186.756 118.528 C 186.711 118.228,186.674 118.521,186.675 119.181 M196.872 119.780 C 196.872 120.659,196.908 120.994,196.950 120.524 C 196.992 120.054,196.991 119.335,196.948 118.926 C 196.905 118.517,196.871 118.901,196.872 119.780 M244.306 127.419 C 244.773 127.461,245.537 127.461,246.004 127.419 C 246.471 127.377,246.089 127.343,245.155 127.343 C 244.221 127.343,243.839 127.377,244.306 127.419 M289.966 127.420 C 290.491 127.461,291.301 127.461,291.764 127.419 C 292.228 127.377,291.798 127.343,290.809 127.344 C 289.820 127.344,289.441 127.379,289.966 127.420 M255.544 130.732 C 255.544 130.766,255.837 131.058,256.194 131.381 L 256.843 131.968 256.256 131.319 C 255.709 130.713,255.544 130.577,255.544 130.732 M312.538 134.565 C 312.540 135.005,312.581 135.161,312.629 134.913 C 312.677 134.664,312.675 134.305,312.625 134.114 C 312.575 133.923,312.536 134.126,312.538 134.565 M271.020 135.914 L 270.230 136.763 271.079 135.973 C 271.869 135.239,272.020 135.065,271.869 135.065 C 271.836 135.065,271.454 135.447,271.020 135.914 M242.311 135.410 C 242.670 135.454,243.210 135.453,243.510 135.407 C 243.810 135.362,243.516 135.326,242.857 135.327 C 242.198 135.328,241.952 135.365,242.311 135.410 M288.066 135.410 C 288.425 135.454,288.964 135.453,289.264 135.407 C 289.565 135.362,289.271 135.326,288.611 135.327 C 287.952 135.328,287.706 135.365,288.066 135.410 M305.141 138.861 C 305.141 139.246,305.182 139.403,305.233 139.211 C 305.283 139.018,305.283 138.704,305.233 138.511 C 305.182 138.319,305.141 138.477,305.141 138.861 M280.410 139.311 L 279.620 140.160 280.470 139.370 C 281.259 138.636,281.410 138.462,281.259 138.462 C 281.227 138.462,280.845 138.844,280.410 139.311 M248.009 140.360 C 248.011 140.909,248.049 141.110,248.095 140.806 C 248.141 140.503,248.140 140.053,248.093 139.807 C 248.045 139.562,248.008 139.810,248.009 140.360 M305.141 140.859 C 305.141 141.244,305.182 141.401,305.233 141.209 C 305.283 141.016,305.283 140.702,305.233 140.509 C 305.182 140.317,305.141 140.475,305.141 140.859 M91.309 141.059 L 90.809 141.219 91.359 141.239 C 91.661 141.250,91.908 141.169,91.908 141.059 C 91.908 140.949,91.886 140.868,91.858 140.879 C 91.831 140.890,91.583 140.971,91.309 141.059 M64.386 141.197 C 64.578 141.247,64.893 141.247,65.085 141.197 C 65.277 141.146,65.120 141.105,64.735 141.105 C 64.351 141.105,64.193 141.146,64.386 141.197 M71.479 141.408 C 72.495 141.444,74.158 141.444,75.175 141.408 C 76.191 141.371,75.360 141.342,73.327 141.342 C 71.294 141.342,70.462 141.371,71.479 141.408 M84.466 141.407 C 85.152 141.446,86.276 141.446,86.963 141.407 C 87.650 141.368,87.088 141.336,85.714 141.336 C 84.341 141.336,83.779 141.368,84.466 141.407 M342.912 147.253 C 342.912 147.747,342.951 147.950,342.998 147.702 C 343.046 147.455,343.046 147.050,342.998 146.803 C 342.951 146.556,342.912 146.758,342.912 147.253 M64.890 150.796 C 65.360 150.838,66.080 150.838,66.489 150.795 C 66.898 150.752,66.513 150.717,65.634 150.718 C 64.755 150.719,64.420 150.754,64.890 150.796 M83.766 150.797 C 84.398 150.837,85.432 150.837,86.064 150.797 C 86.696 150.757,86.179 150.725,84.915 150.725 C 83.651 150.725,83.134 150.757,83.766 150.797 M299.188 153.497 L 298.601 154.146 299.251 153.559 C 299.856 153.012,299.992 152.847,299.838 152.847 C 299.803 152.847,299.511 153.139,299.188 153.497 M181.476 159.940 C 181.477 160.490,181.516 160.691,181.562 160.387 C 181.608 160.083,181.607 159.634,181.559 159.388 C 181.512 159.142,181.474 159.391,181.476 159.940 M260.607 161.638 C 260.607 162.463,260.642 162.800,260.685 162.388 C 260.728 161.976,260.728 161.301,260.685 160.889 C 260.642 160.477,260.607 160.814,260.607 161.638 M230.120 161.779 C 230.367 161.827,230.772 161.827,231.019 161.779 C 231.266 161.732,231.064 161.693,230.569 161.693 C 230.075 161.693,229.873 161.732,230.120 161.779 M275.874 161.779 C 276.121 161.827,276.526 161.827,276.773 161.779 C 277.020 161.732,276.818 161.693,276.324 161.693 C 275.829 161.693,275.627 161.732,275.874 161.779 M272.390 164.336 C 272.391 164.995,272.428 165.241,272.472 164.882 C 272.517 164.522,272.516 163.983,272.470 163.683 C 272.425 163.383,272.388 163.676,272.390 164.336 M215.035 164.735 C 215.038 165.175,215.079 165.331,215.126 165.083 C 215.174 164.834,215.172 164.474,215.122 164.283 C 215.072 164.092,215.033 164.296,215.035 164.735 M189.257 169.830 C 189.257 170.215,189.298 170.372,189.349 170.180 C 189.399 169.988,189.399 169.673,189.349 169.481 C 189.298 169.288,189.257 169.446,189.257 169.830 M343.046 174.775 L 342.358 175.524 343.107 174.836 C 343.804 174.195,343.948 174.026,343.795 174.026 C 343.762 174.026,343.425 174.363,343.046 174.775 M151.499 174.364 C 151.691 174.414,152.005 174.414,152.198 174.364 C 152.390 174.313,152.233 174.272,151.848 174.272 C 151.464 174.272,151.306 174.313,151.499 174.364 M155.095 174.364 C 155.287 174.414,155.602 174.414,155.794 174.364 C 155.987 174.313,155.829 174.272,155.445 174.272 C 155.060 174.272,154.903 174.313,155.095 174.364 M45.205 177.323 C 45.207 177.762,45.248 177.919,45.296 177.670 C 45.344 177.421,45.342 177.062,45.292 176.871 C 45.242 176.680,45.203 176.883,45.205 177.323 M50.702 182.159 C 50.950 182.207,51.310 182.205,51.501 182.155 C 51.692 182.105,51.489 182.066,51.049 182.068 C 50.609 182.071,50.453 182.112,50.702 182.159 M112.640 182.159 C 112.888 182.207,113.248 182.205,113.439 182.155 C 113.630 182.105,113.427 182.066,112.987 182.068 C 112.547 182.071,112.391 182.112,112.640 182.159 M233.017 183.754 C 233.209 183.804,233.524 183.804,233.716 183.754 C 233.909 183.704,233.751 183.663,233.367 183.663 C 232.982 183.663,232.825 183.704,233.017 183.754 M237.115 183.758 C 237.364 183.805,237.723 183.804,237.914 183.754 C 238.105 183.704,237.902 183.665,237.463 183.667 C 237.023 183.669,236.867 183.710,237.115 183.758 M278.674 183.758 C 278.922 183.805,279.282 183.804,279.473 183.754 C 279.664 183.704,279.461 183.665,279.021 183.667 C 278.581 183.669,278.425 183.710,278.674 183.758 M282.667 183.757 C 282.915 183.805,283.319 183.805,283.566 183.757 C 283.814 183.710,283.611 183.671,283.117 183.671 C 282.622 183.671,282.420 183.710,282.667 183.757 M147.205 183.957 C 147.454 184.005,147.813 184.003,148.004 183.953 C 148.195 183.903,147.992 183.864,147.552 183.867 C 147.113 183.869,146.957 183.910,147.205 183.957 M151.998 183.957 C 152.245 184.005,152.650 184.005,152.897 183.957 C 153.144 183.910,152.942 183.871,152.448 183.871 C 151.953 183.871,151.751 183.910,151.998 183.957 M223.829 195.148 C 224.133 195.194,224.582 195.193,224.828 195.146 C 225.074 195.098,224.825 195.061,224.276 195.062 C 223.726 195.064,223.525 195.102,223.829 195.148 M155.000 195.351 C 155.470 195.394,156.190 195.393,156.599 195.350 C 157.008 195.307,156.623 195.273,155.744 195.273 C 154.865 195.274,154.530 195.309,155.000 195.351 M154.574 196.357 C 154.522 196.442,154.854 196.482,155.312 196.447 C 156.656 196.343,156.820 196.252,155.706 196.227 C 155.136 196.214,154.626 196.273,154.574 196.357 M182.854 201.449 C 182.834 203.179,182.885 204.596,182.967 204.596 C 183.049 204.596,183.093 203.630,183.064 202.448 C 182.971 198.609,182.892 198.235,182.854 201.449 M95.551 199.201 C 95.551 199.585,95.592 199.743,95.642 199.550 C 95.692 199.358,95.692 199.043,95.642 198.851 C 95.592 198.659,95.551 198.816,95.551 199.201 M178.076 200.599 C 178.076 201.094,178.115 201.296,178.163 201.049 C 178.211 200.802,178.211 200.397,178.163 200.150 C 178.115 199.903,178.076 200.105,178.076 200.599 M179.675 200.599 C 179.675 201.094,179.714 201.296,179.761 201.049 C 179.809 200.802,179.809 200.397,179.761 200.150 C 179.714 199.903,179.675 200.105,179.675 200.599 M186.860 200.799 C 186.860 201.184,186.901 201.341,186.951 201.149 C 187.001 200.957,187.001 200.642,186.951 200.450 C 186.901 200.257,186.860 200.415,186.860 200.799 M181.469 201.099 C 181.471 201.538,181.512 201.695,181.560 201.446 C 181.608 201.198,181.606 200.838,181.556 200.647 C 181.506 200.456,181.467 200.659,181.469 201.099 M154.000 201.943 C 154.359 201.987,154.898 201.987,155.198 201.941 C 155.499 201.895,155.205 201.859,154.545 201.860 C 153.886 201.861,153.640 201.899,154.000 201.943 M118.736 202.997 C 118.736 203.492,118.775 203.694,118.822 203.447 C 118.870 203.199,118.870 202.795,118.822 202.547 C 118.775 202.300,118.736 202.502,118.736 202.997 M171.888 203.197 C 171.888 203.801,171.926 204.048,171.971 203.746 C 172.017 203.444,172.017 202.950,171.971 202.647 C 171.926 202.345,171.888 202.592,171.888 203.197 M78.568 203.197 C 78.568 203.581,78.609 203.739,78.659 203.546 C 78.709 203.354,78.709 203.039,78.659 202.847 C 78.609 202.655,78.568 202.812,78.568 203.197 M185.676 204.296 C 185.677 204.955,185.715 205.201,185.759 204.842 C 185.804 204.482,185.803 203.943,185.757 203.643 C 185.712 203.343,185.675 203.636,185.676 204.296 M187.013 204.096 C 187.013 204.371,187.090 204.595,187.185 204.595 C 187.280 204.595,187.314 204.371,187.262 204.096 C 187.209 203.821,187.132 203.596,187.090 203.596 C 187.047 203.596,187.013 203.821,187.013 204.096 M83.563 204.995 C 83.563 205.380,83.604 205.537,83.654 205.345 C 83.704 205.152,83.704 204.838,83.654 204.645 C 83.604 204.453,83.563 204.610,83.563 204.995 " stroke="none" fill="#91cce8" fill-rule="evenodd"></path><path id="path3" d="M114.286 0.120 C 113.791 0.162,112.218 0.291,110.789 0.407 C 38.451 6.303,-12.593 75.777,3.121 146.953 C 21.242 229.037,115.838 268.045,186.660 222.639 C 188.520 221.447,189.697 220.809,189.857 220.907 C 189.996 220.993,190.829 221.614,191.708 222.288 C 225.411 248.129,275.197 240.343,299.310 205.462 C 300.471 203.782,300.368 204.141,301.976 196.204 C 308.581 163.604,312.498 141.344,312.559 136.064 C 312.616 131.196,313.465 129.875,316.803 129.463 C 321.438 128.891,322.121 128.970,323.534 130.244 C 325.168 131.717,325.317 132.606,324.559 136.349 C 323.946 139.373,323.968 139.444,324.978 137.718 C 328.550 131.613,333.203 128.360,339.331 127.683 C 352.357 126.246,358.299 138.721,353.139 156.673 C 347.646 175.783,334.119 185.669,317.483 182.732 C 316.658 182.586,315.944 182.504,315.895 182.548 C 315.771 182.660,312.072 203.324,311.589 206.606 L 311.454 207.518 313.819 208.045 C 320.247 209.479,322.181 209.680,329.570 209.686 C 380.302 209.723,414.160 158.440,394.261 111.701 C 379.470 76.960,338.937 60.139,303.758 74.143 L 301.323 75.113 299.563 73.399 C 280.844 55.177,252.773 50.785,229.557 62.444 C 228.553 62.949,227.708 63.334,227.681 63.299 C 227.654 63.265,227.067 62.248,226.377 61.039 C 206.965 27.028,173.010 4.861,133.766 0.579 C 130.168 0.186,117.150 -0.120,114.286 0.120 M121.678 23.571 L 121.678 26.763 124.675 27.705 C 126.324 28.223,127.672 28.701,127.672 28.767 C 127.672 28.832,126.326 29.328,124.680 29.869 L 121.688 30.851 121.633 34.055 L 121.578 37.259 119.715 34.713 C 118.690 33.313,117.833 32.168,117.810 32.168 C 117.786 32.168,116.428 32.616,114.792 33.165 C 113.156 33.713,111.790 34.135,111.758 34.102 C 111.725 34.069,112.535 32.877,113.557 31.451 L 115.415 28.860 113.564 26.368 C 111.626 23.759,111.465 23.476,112.038 23.665 C 112.230 23.729,113.608 24.171,115.100 24.647 L 117.812 25.513 119.595 22.957 C 120.576 21.551,121.446 20.396,121.528 20.390 C 121.611 20.384,121.678 21.816,121.678 23.571 M94.926 35.957 L 95.405 37.548 97.184 37.605 L 98.964 37.662 97.696 38.561 C 96.999 39.056,96.355 39.511,96.265 39.573 C 96.176 39.635,96.328 40.350,96.605 41.164 C 97.261 43.091,97.223 43.131,95.755 42.064 C 95.071 41.566,94.419 41.159,94.306 41.159 C 94.192 41.159,93.540 41.566,92.856 42.064 C 91.389 43.131,91.351 43.091,92.006 41.164 C 92.283 40.350,92.436 39.635,92.346 39.573 C 92.256 39.511,91.613 39.056,90.915 38.561 L 89.648 37.662 91.442 37.605 L 93.236 37.548 93.696 35.957 C 94.265 33.987,94.333 33.987,94.926 35.957 M162.000 35.870 C 162.736 37.085,162.704 37.073,164.226 36.668 C 165.624 36.297,165.651 36.350,164.661 37.532 C 163.673 38.712,163.680 38.595,164.527 39.956 C 165.361 41.296,165.385 41.273,163.826 40.639 L 162.549 40.121 161.589 41.189 L 160.629 42.258 160.684 40.814 L 160.739 39.371 159.586 38.940 C 157.852 38.292,157.884 38.232,160.266 37.658 C 160.817 37.525,161.032 36.900,161.037 35.415 C 161.040 34.513,161.235 34.605,162.000 35.870 M141.282 38.218 L 141.805 38.597 143.580 37.282 C 144.556 36.559,145.415 35.967,145.488 35.966 C 145.608 35.964,144.895 38.505,144.437 39.709 C 144.337 39.971,144.256 40.218,144.256 40.257 C 144.256 40.296,145.087 40.942,146.104 41.692 L 147.952 43.057 145.650 43.113 L 143.349 43.169 142.674 45.361 C 141.849 48.036,141.903 48.035,141.038 45.405 L 140.332 43.257 138.098 43.328 C 135.377 43.415,135.355 43.352,137.562 41.758 C 139.512 40.351,139.442 40.572,138.661 38.262 C 137.753 35.574,137.638 35.576,141.282 38.218 M128.626 53.158 C 139.515 55.684,146.013 67.663,142.082 77.962 L 141.876 78.501 137.452 76.378 C 130.738 73.157,131.959 72.930,120.101 79.613 C 110.147 85.223,110.885 84.863,110.408 84.336 C 110.030 83.918,109.323 84.369,118.035 79.473 L 120.685 77.984 118.234 76.830 C 114.943 75.280,115.111 75.261,110.913 77.632 C 106.915 79.888,107.248 79.910,106.411 77.344 C 101.859 63.405,114.321 49.839,128.626 53.158 M169.630 57.214 C 170.455 58.379,171.208 59.335,171.305 59.337 C 171.403 59.339,173.187 58.795,175.270 58.127 C 177.354 57.460,179.100 56.955,179.151 57.006 C 179.202 57.057,178.159 58.561,176.834 60.349 C 175.510 62.137,174.431 63.698,174.437 63.818 C 174.443 63.938,175.511 65.519,176.810 67.333 C 178.110 69.146,179.115 70.652,179.044 70.680 C 178.973 70.708,177.163 70.143,175.022 69.424 L 171.129 68.117 170.780 68.574 C 170.588 68.825,169.442 70.373,168.233 72.014 L 166.034 74.997 166.034 70.682 L 166.034 66.367 162.010 65.025 C 159.497 64.188,158.090 63.627,158.263 63.532 C 158.416 63.449,160.227 62.856,162.288 62.215 L 166.034 61.050 166.035 58.447 C 166.036 57.016,166.094 55.101,166.165 54.193 L 166.293 52.541 167.213 53.818 C 167.718 54.521,168.806 56.049,169.630 57.214 M89.603 58.240 C 92.005 57.126,91.985 57.106,90.732 59.358 C 89.497 61.577,89.432 61.071,91.202 62.995 C 92.991 64.940,93.028 64.869,90.498 64.353 C 89.375 64.123,88.393 63.936,88.316 63.936 C 88.239 63.936,87.691 64.830,87.100 65.922 C 86.508 67.014,85.991 67.876,85.952 67.837 C 85.913 67.798,85.754 66.799,85.599 65.619 C 85.262 63.052,85.606 63.419,83.054 62.908 C 80.560 62.408,80.560 62.442,83.033 61.321 L 84.959 60.447 84.829 59.345 C 84.758 58.738,84.653 57.702,84.595 57.043 L 84.492 55.844 86.067 57.497 L 87.642 59.150 89.603 58.240 M178.721 112.709 C 184.052 113.387,185.695 114.344,186.546 117.268 C 188.002 122.269,184.242 125.488,179.486 123.312 C 174.516 121.038,167.653 121.083,163.189 123.418 C 158.471 125.888,155.968 131.792,157.889 135.923 C 158.964 138.234,160.373 139.334,167.532 143.452 C 176.180 148.426,178.409 150.238,180.107 153.679 C 185.045 163.682,177.102 177.183,163.513 181.886 C 154.025 185.170,140.859 184.674,138.317 180.938 C 134.833 175.815,139.466 169.990,144.955 172.592 C 148.089 174.077,153.794 174.676,157.742 173.934 C 165.140 172.543,169.498 167.942,169.189 161.848 C 169.009 158.297,167.812 157.087,159.640 152.198 C 147.992 145.228,145.522 142.362,145.297 135.551 C 144.811 120.853,160.180 110.350,178.721 112.709 M206.209 113.115 C 208.687 113.858,209.677 116.044,209.008 119.296 C 207.379 127.216,203.669 148.260,201.206 163.551 C 199.571 173.705,200.511 175.427,206.757 173.715 C 212.574 172.121,212.872 179.298,207.098 181.941 C 205.589 182.632,203.957 182.870,200.599 182.888 C 190.984 182.938,187.759 177.616,189.783 165.035 C 190.039 163.442,190.597 160.160,191.022 157.742 C 195.788 130.637,196.506 125.993,196.781 120.523 C 197.053 115.117,197.853 114.077,202.398 113.225 C 204.337 112.861,205.271 112.834,206.209 113.115 M126.475 114.213 C 132.692 117.725,127.145 129.606,120.226 127.595 C 115.703 126.279,114.749 120.577,118.302 116.083 C 120.271 113.591,123.903 112.760,126.475 114.213 M65.684 113.990 C 68.369 114.787,69.263 117.388,68.246 121.442 C 67.411 124.776,64.268 140.858,64.422 141.012 C 64.684 141.274,91.504 141.190,91.666 140.927 C 91.744 140.799,92.601 136.123,93.569 130.537 C 95.837 117.458,95.650 118.364,96.360 117.019 C 98.895 112.217,106.829 112.412,107.878 117.303 C 108.058 118.142,107.973 118.675,107.082 122.308 C 105.614 128.289,97.632 171.257,97.195 175.524 C 96.758 179.800,94.274 182.075,90.010 182.104 C 84.880 182.140,83.333 179.673,85.008 174.126 C 86.459 169.321,89.920 151.175,89.413 151.028 C 88.132 150.655,62.843 150.676,62.469 151.050 C 62.324 151.195,59.206 169.499,58.650 173.463 C 57.975 178.286,56.984 180.085,54.270 181.421 C 52.848 182.122,50.352 182.488,50.347 181.997 C 50.344 181.769,50.309 181.772,50.158 182.012 C 49.903 182.415,48.347 182.010,47.257 181.256 C 45.315 179.913,44.773 177.827,45.635 175.006 C 46.566 171.958,47.497 167.318,51.444 146.054 C 55.982 121.608,55.663 123.380,56.040 120.513 C 56.756 115.075,60.595 112.478,65.684 113.990 M250.050 127.871 C 264.155 131.684,262.290 150.495,247.053 158.101 C 242.525 160.361,238.042 161.372,230.483 161.837 C 226.459 162.084,226.875 161.774,226.904 164.505 C 227.003 173.855,234.174 177.615,244.644 173.804 C 249.667 171.976,251.442 176.339,247.472 180.755 C 243.457 185.221,228.413 184.844,221.973 180.116 C 211.754 172.615,212.681 150.724,223.776 137.531 C 230.270 129.810,241.689 125.612,250.050 127.871 M295.997 127.964 C 304.191 130.393,307.307 137.513,304.014 146.288 C 300.474 155.722,291.176 160.928,276.233 161.839 C 272.211 162.084,272.473 161.861,272.601 164.935 C 272.984 174.176,280.486 177.735,290.915 173.624 C 295.149 171.955,296.727 176.024,293.531 180.367 C 290.169 184.935,275.308 185.096,268.479 180.638 C 255.215 171.979,259.320 142.945,275.314 132.291 C 281.939 127.878,290.010 126.189,295.997 127.964 M123.218 131.170 C 126.048 132.010,126.560 133.838,125.490 139.288 C 123.377 150.061,120.157 169.056,119.492 174.678 C 118.855 180.058,117.249 181.936,113.074 182.177 C 108.654 182.433,107.116 179.831,108.375 174.226 C 108.757 172.522,109.702 167.667,110.474 163.437 C 113.299 147.964,114.017 143.143,114.220 138.262 C 114.364 134.820,114.703 133.658,115.873 132.601 C 116.660 131.891,116.726 131.869,120.280 131.199 C 122.259 130.826,122.067 130.828,123.218 131.170 M240.148 135.910 C 234.129 138.015,230.108 144.329,228.144 154.757 C 227.634 157.469,227.535 157.280,229.288 156.946 C 234.046 156.039,239.597 152.924,243.772 148.818 C 250.803 141.903,248.319 133.052,240.148 135.910 M286.114 135.842 C 279.756 137.900,275.729 144.314,273.660 155.677 L 273.381 157.209 274.103 157.104 C 282.568 155.879,292.389 148.164,293.512 141.858 C 294.359 137.100,290.905 134.291,286.114 135.842 M334.576 138.269 C 329.813 139.093,324.950 144.893,322.151 153.089 C 321.067 156.264,319.077 165.020,317.797 172.246 C 317.651 173.069,320.118 174.090,323.058 174.424 C 332.112 175.452,338.590 169.525,341.455 157.589 C 344.640 144.323,342.025 136.979,334.576 138.269 M162.597 195.045 C 162.965 195.412,162.883 196.158,162.425 196.616 C 161.880 197.161,161.197 197.046,160.960 196.369 C 160.596 195.329,161.859 194.307,162.597 195.045 M251.820 195.244 C 252.357 196.102,251.023 197.445,250.262 196.813 C 249.554 196.226,250.187 194.734,251.098 194.844 C 251.379 194.877,251.704 195.058,251.820 195.244 M225.874 195.205 C 226.294 195.364,226.387 195.516,226.337 195.954 L 226.274 196.503 224.476 196.439 C 222.249 196.359,221.237 196.872,220.328 198.545 C 218.147 202.561,220.262 206.320,223.974 205.025 C 224.699 204.773,224.954 205.087,224.585 205.776 C 223.628 207.564,218.830 206.395,217.890 204.145 C 215.901 199.386,221.217 193.434,225.874 195.205 M68.413 195.398 C 68.984 195.615,68.951 195.500,69.551 199.301 C 69.794 200.839,70.046 202.247,70.111 202.429 C 70.192 202.655,70.901 201.605,72.337 199.133 C 74.327 195.705,74.484 195.494,75.179 195.321 C 76.191 195.067,77.017 195.435,76.843 196.060 C 76.585 196.982,75.549 202.367,75.317 203.996 C 75.035 205.971,74.904 206.194,74.023 206.194 C 73.099 206.194,73.098 206.106,73.951 201.998 C 74.969 197.091,74.940 197.071,72.627 201.114 C 69.170 207.158,69.253 207.154,68.225 201.299 C 67.936 199.650,67.648 198.122,67.585 197.902 C 67.522 197.682,67.116 199.340,66.680 201.598 C 65.813 206.085,65.751 206.242,64.852 206.154 C 64.061 206.077,64.067 205.984,65.116 201.898 C 65.568 200.140,65.995 198.080,66.067 197.321 C 66.250 195.380,66.921 194.830,68.413 195.398 M158.578 195.723 C 161.155 197.639,158.817 201.685,154.958 201.989 L 153.565 202.098 153.251 203.896 C 152.872 206.071,152.803 206.194,151.958 206.194 C 151.166 206.194,150.949 205.809,151.237 204.915 C 151.493 204.118,152.847 196.928,152.847 196.364 C 152.847 195.107,157.107 194.630,158.578 195.723 M166.306 195.504 C 166.369 195.669,166.379 195.917,166.328 196.054 C 166.277 196.191,165.923 198.135,165.541 200.374 C 164.753 204.991,164.782 205.324,165.951 205.105 C 166.542 204.994,166.633 205.030,166.633 205.374 C 166.633 206.232,165.114 206.680,164.043 206.138 C 163.178 205.701,163.148 205.006,163.819 201.066 C 164.158 199.078,164.436 197.177,164.436 196.841 C 164.436 195.434,165.882 194.400,166.306 195.504 M170.716 195.384 C 170.777 195.482,170.733 196.044,170.618 196.632 C 169.150 204.149,169.112 205.337,170.347 205.105 C 170.937 204.994,171.029 205.030,171.029 205.374 C 171.029 206.187,169.703 206.639,168.576 206.211 C 167.574 205.830,167.525 205.158,168.203 201.151 C 168.543 199.144,168.879 197.053,168.951 196.503 C 169.023 195.954,169.121 195.437,169.168 195.355 C 169.290 195.143,170.583 195.168,170.716 195.384 M243.269 195.464 C 243.323 195.606,243.231 196.377,243.063 197.175 C 242.639 199.189,242.666 199.319,243.347 198.543 C 244.558 197.164,246.893 197.131,247.459 198.485 C 248.028 199.847,246.730 206.194,245.883 206.194 C 244.977 206.194,244.933 205.865,245.459 202.985 C 246.086 199.550,246.087 199.241,245.468 199.006 C 243.752 198.354,242.605 199.800,241.859 203.556 C 241.402 205.856,241.223 206.185,240.431 206.191 C 239.903 206.195,239.731 205.794,239.942 205.056 C 240.031 204.748,240.442 202.517,240.856 200.100 C 241.269 197.682,241.639 195.592,241.677 195.455 C 241.769 195.122,243.141 195.130,243.269 195.464 M88.801 196.004 C 88.796 196.279,88.724 196.762,88.641 197.078 C 88.499 197.622,88.520 197.647,89.038 197.548 C 89.761 197.410,90.110 197.562,90.110 198.016 C 90.110 198.454,89.543 198.801,88.828 198.801 C 88.252 198.801,88.292 198.694,87.708 201.798 C 87.142 204.803,87.233 205.236,88.412 205.130 C 88.871 205.088,89.050 205.686,88.703 206.104 C 88.249 206.651,86.316 206.386,85.867 205.714 C 85.601 205.316,85.707 204.133,86.250 201.411 C 86.640 199.453,86.721 198.704,86.549 198.647 C 86.171 198.520,86.278 197.835,86.713 197.602 C 86.975 197.462,87.113 197.184,87.113 196.796 C 87.113 196.070,87.777 195.357,88.374 195.442 C 88.694 195.488,88.809 195.639,88.801 196.004 M93.247 195.625 C 93.394 195.772,93.407 196.053,93.287 196.472 C 92.992 197.499,93.045 197.661,93.626 197.516 C 94.121 197.391,94.705 197.660,94.705 198.012 C 94.705 198.384,94.032 198.801,93.432 198.801 L 92.786 198.801 92.334 201.149 C 91.638 204.768,91.668 205.068,92.716 205.039 C 93.417 205.019,93.641 205.370,93.315 205.978 C 93.041 206.491,91.440 206.563,90.770 206.094 C 90.086 205.615,90.071 204.879,90.684 201.798 C 91.177 199.319,91.220 198.856,90.985 198.586 C 90.622 198.171,90.627 198.149,91.209 197.521 C 91.484 197.225,91.708 196.792,91.708 196.559 C 91.708 195.706,92.716 195.094,93.247 195.625 M154.379 197.752 C 154.215 198.494,154.020 199.487,153.944 199.959 L 153.808 200.818 154.876 200.686 C 158.090 200.288,158.892 196.404,155.760 196.404 L 154.677 196.404 154.379 197.752 M105.339 197.611 C 108.320 198.439,106.513 202.232,102.857 202.818 C 101.322 203.064,101.256 203.124,101.506 204.030 C 101.831 205.208,102.576 205.497,104.346 205.132 C 105.002 204.996,105.095 205.024,105.095 205.355 C 105.095 206.445,102.522 206.906,101.081 206.074 C 98.179 204.398,99.933 198.481,103.596 197.589 C 104.451 197.381,104.514 197.382,105.339 197.611 M124.589 197.695 C 127.439 198.886,125.322 202.368,121.429 202.893 C 120.535 203.014,120.480 203.057,120.480 203.622 C 120.480 204.951,121.437 205.540,123.023 205.184 C 124.073 204.949,124.169 204.998,123.997 205.682 C 123.616 207.198,119.837 206.623,119.070 204.932 C 117.425 201.308,121.246 196.298,124.589 197.695 M267.439 197.692 C 268.623 198.187,268.674 198.572,268.050 202.354 C 267.467 205.882,267.352 206.194,266.633 206.194 C 265.807 206.194,265.758 205.834,266.253 203.397 C 267.041 199.509,266.841 198.569,265.306 198.942 C 263.777 199.313,263.299 200.186,262.740 203.631 C 262.373 205.894,262.219 206.185,261.382 206.191 C 260.697 206.195,260.684 205.919,261.233 202.792 C 261.511 201.207,261.738 199.610,261.738 199.243 C 261.738 198.346,262.020 197.875,262.651 197.717 C 263.379 197.534,263.743 197.892,263.617 198.669 L 263.514 199.301 263.818 198.778 C 264.083 198.319,264.719 197.910,265.734 197.543 C 266.258 197.353,266.726 197.394,267.439 197.692 M84.749 198.053 C 84.835 198.190,84.866 198.437,84.817 198.601 C 84.585 199.385,83.716 204.500,83.716 205.084 C 83.716 205.853,83.331 206.252,82.678 206.159 C 82.265 206.101,82.218 205.989,82.225 205.074 L 82.232 204.055 81.697 204.793 C 80.576 206.340,79.420 206.765,78.137 206.102 C 75.931 204.961,77.110 199.874,79.969 198.193 C 81.106 197.525,84.357 197.429,84.749 198.053 M99.800 198.205 C 99.800 198.589,99.613 198.792,98.978 199.101 C 97.308 199.912,96.887 200.664,96.397 203.706 C 96.051 205.855,95.889 206.194,95.205 206.194 C 94.732 206.194,94.202 205.725,94.369 205.453 C 94.543 205.169,95.504 199.664,95.504 198.948 C 95.504 198.115,95.878 197.750,96.641 197.838 C 97.170 197.898,97.200 197.954,97.162 198.785 L 97.121 199.667 97.616 198.939 C 98.477 197.671,99.800 197.227,99.800 198.205 M112.388 198.302 L 112.388 198.901 111.123 198.831 C 108.457 198.682,108.146 200.150,110.540 201.582 C 113.261 203.211,111.696 206.423,108.165 206.456 C 106.859 206.468,106.294 206.208,106.294 205.594 C 106.294 204.982,106.803 204.725,107.518 204.974 C 109.995 205.837,111.257 204.013,109.093 202.699 C 105.915 200.768,107.132 197.532,110.989 197.657 L 112.388 197.702 112.388 198.302 M118.249 198.179 C 118.342 198.832,118.002 198.984,116.744 198.855 C 114.264 198.599,114.023 200.200,116.334 201.582 C 119.056 203.211,117.491 206.423,113.959 206.456 C 112.653 206.468,112.088 206.208,112.088 205.594 C 112.088 204.982,112.597 204.725,113.312 204.974 C 115.789 205.837,117.051 204.013,114.887 202.699 C 113.011 201.559,112.613 200.514,113.506 199.069 C 114.397 197.627,118.074 196.937,118.249 198.179 M131.442 197.947 C 131.823 198.629,131.353 199.038,130.360 198.889 C 127.738 198.496,127.120 200.088,129.371 201.434 C 131.313 202.596,131.488 204.398,129.785 205.697 C 128.585 206.612,125.895 206.780,125.460 205.967 C 125.158 205.402,125.586 204.722,126.141 204.884 C 129.187 205.775,130.553 204.074,127.975 202.599 C 125.934 201.431,125.696 199.965,127.304 198.464 C 128.267 197.564,131.034 197.219,131.442 197.947 M178.562 197.994 C 179.962 198.848,180.225 201.141,179.183 203.417 C 177.250 207.639,171.828 207.448,171.828 203.157 C 171.828 199.215,175.698 196.248,178.562 197.994 M197.416 197.919 C 197.927 198.534,197.395 198.910,196.120 198.833 C 193.641 198.685,193.187 200.076,195.282 201.399 C 197.150 202.579,197.461 203.783,196.265 205.204 C 194.969 206.745,191.409 207.041,191.409 205.608 C 191.409 204.912,191.754 204.755,192.666 205.035 C 193.633 205.331,194.736 205.086,195.128 204.488 C 195.580 203.799,195.391 203.499,193.931 202.583 C 192.049 201.403,191.748 200.216,192.964 198.770 C 193.903 197.654,196.746 197.111,197.416 197.919 M233.485 198.469 C 233.172 199.607,232.548 203.054,232.416 204.372 C 232.240 206.125,231.807 206.638,230.988 206.065 C 230.603 205.795,230.545 205.621,230.642 205.024 L 230.758 204.308 230.393 204.901 C 229.300 206.675,226.626 206.968,225.970 205.386 C 225.691 204.712,226.785 198.245,227.226 197.965 C 228.488 197.163,228.714 197.942,228.092 200.953 C 227.343 204.579,227.402 204.995,228.667 204.995 C 229.984 204.995,230.733 203.898,231.260 201.196 C 231.442 200.263,231.653 199.188,231.729 198.806 C 231.894 197.981,232.618 197.509,233.223 197.832 C 233.490 197.975,233.568 198.166,233.485 198.469 M239.461 198.302 L 239.461 198.901 238.196 198.831 C 235.530 198.682,235.218 200.150,237.613 201.582 C 240.334 203.211,238.769 206.423,235.238 206.456 C 233.932 206.468,233.367 206.208,233.367 205.594 C 233.367 204.982,233.875 204.725,234.591 204.974 C 237.068 205.837,238.330 204.013,236.166 202.699 C 232.988 200.768,234.205 197.532,238.062 197.657 L 239.461 197.702 239.461 198.302 M258.903 198.007 C 261.162 199.384,260.021 204.525,257.129 206.001 C 254.523 207.330,252.150 205.947,252.149 203.097 C 252.147 199.132,255.994 196.233,258.903 198.007 M274.739 197.919 C 275.262 198.549,274.722 198.909,273.372 198.832 C 270.882 198.690,270.569 200.071,272.772 201.474 C 274.425 202.528,274.696 203.285,273.947 204.755 C 273.027 206.558,268.731 207.250,268.731 205.594 C 268.731 204.990,269.190 204.767,269.913 205.019 C 271.979 205.739,273.575 204.159,271.908 203.045 C 269.676 201.554,269.275 200.790,269.985 199.385 C 270.764 197.842,273.878 196.881,274.739 197.919 M162.292 198.056 C 162.346 198.196,162.181 199.403,161.926 200.738 C 161.671 202.074,161.399 203.719,161.323 204.394 C 161.171 205.740,160.867 206.194,160.119 206.194 C 159.389 206.194,159.373 205.909,159.930 202.894 C 160.210 201.376,160.440 199.784,160.440 199.355 C 160.440 198.035,161.893 197.016,162.292 198.056 M182.777 198.042 C 182.942 198.207,183.019 199.247,183.024 201.389 L 183.032 204.496 184.175 201.805 C 186.006 197.497,186.746 197.426,187.041 201.530 C 187.142 202.941,187.244 204.160,187.269 204.238 C 187.293 204.316,187.834 203.057,188.471 201.441 C 189.921 197.758,189.830 197.914,190.580 197.839 C 191.393 197.759,191.404 198.125,190.638 199.715 C 190.324 200.366,189.595 201.978,189.019 203.297 C 187.871 205.922,187.651 206.194,186.682 206.194 C 185.796 206.194,185.614 205.777,185.614 203.743 C 185.614 201.470,185.469 201.468,184.572 203.730 C 183.593 206.199,182.665 206.960,181.872 205.944 C 181.651 205.661,181.177 198.542,181.350 198.094 C 181.484 197.742,182.443 197.707,182.777 198.042 M251.348 198.352 C 251.347 198.654,251.123 200.155,250.848 201.688 C 250.574 203.221,250.350 204.720,250.350 205.020 C 250.350 205.698,249.877 206.194,249.230 206.194 C 248.489 206.194,248.470 205.852,249.032 202.785 C 249.317 201.232,249.550 199.650,249.550 199.268 C 249.550 198.204,249.853 197.802,250.656 197.802 C 251.279 197.802,251.349 197.858,251.348 198.352 M81.189 198.828 C 79.525 199.289,78.177 202.584,78.955 204.291 C 79.458 205.395,81.018 205.083,81.813 203.719 C 82.192 203.069,83.238 199.016,83.059 198.889 C 82.833 198.727,81.688 198.689,81.189 198.828 M102.806 199.251 C 102.162 199.896,101.298 202.064,101.575 202.341 C 102.053 202.818,104.763 200.896,105.012 199.904 C 105.349 198.560,103.920 198.138,102.806 199.251 M121.821 199.271 C 121.209 199.883,120.318 202.103,120.579 202.364 C 121.119 202.904,124.076 200.627,124.076 199.671 C 124.076 198.414,122.889 198.204,121.821 199.271 M142.378 198.809 C 144.461 199.601,143.402 202.797,141.057 202.797 C 138.843 202.797,138.622 199.962,140.759 198.978 C 141.706 198.542,141.683 198.545,142.378 198.809 M175.618 198.957 C 173.488 200.026,172.755 204.522,174.596 205.222 C 176.248 205.850,178.022 203.449,178.022 200.585 C 178.022 199.003,176.960 198.283,175.618 198.957 M208.471 198.880 C 210.378 199.676,209.337 202.797,207.164 202.797 C 204.770 202.797,204.556 199.896,206.876 198.885 C 207.656 198.546,207.672 198.546,208.471 198.880 M256.244 198.744 C 254.331 199.202,253.009 203.708,254.428 204.930 C 256.240 206.490,259.014 202.706,258.260 199.703 C 258.152 199.271,257.024 198.491,256.700 198.625 C 256.669 198.637,256.464 198.691,256.244 198.744 " stroke="none" fill="#0484cc" fill-rule="evenodd"></path></g></svg>